<?xml version="1.0" encoding="UTF-8" standalone="no"?>
<!-- Created with Inkscape (http://www.inkscape.org/) -->

<svg
   width="4000mm"
   height="4000mm"
   viewBox="0 0 4000 4000"
   version="1.1"
   id="svg5"
   sodipodi:docname="drawing-1.svg"
   inkscape:version="1.2 (dc2aeda, 2022-05-15)"
   xmlns:inkscape="http://www.inkscape.org/namespaces/inkscape"
   xmlns:sodipodi="http://sodipodi.sourceforge.net/DTD/sodipodi-0.dtd"
   xmlns="http://www.w3.org/2000/svg"
   xmlns:svg="http://www.w3.org/2000/svg">
  <sodipodi:namedview
     id="namedview7"
     pagecolor="#ffffff"
     bordercolor="#666666"
     borderopacity="1.0"
     inkscape:showpageshadow="2"
     inkscape:pageopacity="0.0"
     inkscape:pagecheckerboard="0"
     inkscape:deskcolor="#d1d1d1"
     inkscape:document-units="mm"
     showgrid="false"
     inkscape:zoom="0.01"
     inkscape:cx="3250"
     inkscape:cy="4900"
     inkscape:window-width="1280"
     inkscape:window-height="992"
     inkscape:window-x="0"
     inkscape:window-y="0"
     inkscape:window-maximized="1"
     inkscape:current-layer="layer1"
     showguides="true">
    <sodipodi:guide
       position="1990.9739,1828.3776"
       orientation="1,0"
       id="guide3759"
       inkscape:locked="false" />
    <sodipodi:guide
       position="-921.53289,2170.0676"
       orientation="0,-1"
       id="guide3761"
       inkscape:locked="false" />
  </sodipodi:namedview>
  <defs
     id="defs2">
    <inkscape:path-effect
       effect="curvestitching"
       id="path-effect1897"
       is_visible="true"
       lpeversion="1"
       count="75"
       startpoint_edge_variation="0;1"
       startpoint_spacing_variation="0;1"
       endpoint_edge_variation="0;1"
       endpoint_spacing_variation="0;1"
       strokepath="M -178.38543,965.21472 C 3.1632261,2666.0626 2503.8985,2537.9175 2639.4896,972.60072"
       prop_scale="1"
       scale_y_rel="false"
       strokepath-nodetypes="cc" />
    <inkscape:path-effect
       effect="curvestitching"
       id="path-effect1857"
       is_visible="true"
       lpeversion="1"
       count="75"
       startpoint_edge_variation="0;1"
       startpoint_spacing_variation="0;1"
       endpoint_edge_variation="0;1"
       endpoint_spacing_variation="0;1"
       strokepath="M -178.38543,965.21472 C 3.1632261,2666.0626 2503.8985,2537.9175 2639.4896,972.60072"
       prop_scale="1"
       scale_y_rel="false"
       strokepath-nodetypes="cc" />
    <inkscape:path-effect
       effect="curvestitching"
       id="path-effect421"
       is_visible="true"
       lpeversion="1"
       count="75"
       startpoint_edge_variation="0;1"
       startpoint_spacing_variation="0;1"
       endpoint_edge_variation="0;1"
       endpoint_spacing_variation="0;1"
       strokepath="M -178.38543,965.21472 C 3.1632261,2666.0626 2503.8985,2537.9175 2639.4896,972.60072"
       prop_scale="1"
       scale_y_rel="false"
       strokepath-nodetypes="cc" />
    <inkscape:path-effect
       effect="curvestitching"
       id="path-effect415"
       is_visible="true"
       lpeversion="1"
       count="75"
       startpoint_edge_variation="0;1"
       startpoint_spacing_variation="0;1"
       endpoint_edge_variation="0;1"
       endpoint_spacing_variation="0;1"
       strokepath="M -178.38543,965.21472 C 3.1632261,2666.0626 2503.8985,2537.9175 2639.4896,972.60072"
       prop_scale="1"
       scale_y_rel="false"
       strokepath-nodetypes="cc" />
    <inkscape:path-effect
       effect="curvestitching"
       id="path-effect3678"
       is_visible="true"
       lpeversion="1"
       count="75"
       startpoint_edge_variation="0;1"
       startpoint_spacing_variation="0;1"
       endpoint_edge_variation="0;1"
       endpoint_spacing_variation="0;1"
       strokepath="M -178.38543,965.21472 C 3.1632261,2666.0626 2503.8985,2537.9175 2639.4896,972.60072"
       prop_scale="1"
       scale_y_rel="false"
       strokepath-nodetypes="cc" />
    <inkscape:path-effect
       effect="curvestitching"
       id="path-effect3672"
       is_visible="true"
       lpeversion="1"
       count="75"
       startpoint_edge_variation="0;1"
       startpoint_spacing_variation="0;1"
       endpoint_edge_variation="0;1"
       endpoint_spacing_variation="0;1"
       strokepath="M -178.38543,965.21472 C 3.1632261,2666.0626 2503.8985,2537.9175 2639.4896,972.60072"
       prop_scale="1"
       scale_y_rel="false"
       strokepath-nodetypes="cc" />
    <inkscape:path-effect
       effect="curvestitching"
       id="path-effect3666"
       is_visible="true"
       lpeversion="1"
       count="75"
       startpoint_edge_variation="0;1"
       startpoint_spacing_variation="0;1"
       endpoint_edge_variation="0;1"
       endpoint_spacing_variation="0;1"
       strokepath="M -178.38543,965.21472 C 3.1632261,2666.0626 2503.8985,2537.9175 2639.4896,972.60072"
       prop_scale="1"
       scale_y_rel="false"
       strokepath-nodetypes="cc" />
    <inkscape:path-effect
       effect="curvestitching"
       id="path-effect3660"
       is_visible="true"
       lpeversion="1"
       count="75"
       startpoint_edge_variation="0;1"
       startpoint_spacing_variation="0;1"
       endpoint_edge_variation="0;1"
       endpoint_spacing_variation="0;1"
       strokepath="M -178.38543,965.21472 C 3.1632261,2666.0626 2503.8985,2537.9175 2639.4896,972.60072"
       prop_scale="1"
       scale_y_rel="false"
       strokepath-nodetypes="cc" />
    <inkscape:path-effect
       effect="curvestitching"
       id="path-effect3654"
       is_visible="true"
       lpeversion="1"
       count="75"
       startpoint_edge_variation="0;1"
       startpoint_spacing_variation="0;1"
       endpoint_edge_variation="0;1"
       endpoint_spacing_variation="0;1"
       strokepath="M -178.38543,965.21472 C 3.1632261,2666.0626 2503.8985,2537.9175 2639.4896,972.60072"
       prop_scale="1"
       scale_y_rel="false"
       strokepath-nodetypes="cc" />
    <inkscape:path-effect
       effect="curvestitching"
       id="path-effect1285"
       is_visible="true"
       lpeversion="1"
       count="75"
       startpoint_edge_variation="0;1"
       startpoint_spacing_variation="0;1"
       endpoint_edge_variation="0;1"
       endpoint_spacing_variation="0;1"
       strokepath="M -178.38543,965.21472 C 3.1632261,2666.0626 2503.8985,2537.9175 2639.4896,972.60072"
       prop_scale="1"
       scale_y_rel="false"
       strokepath-nodetypes="cc" />
    <inkscape:path-effect
       effect="curvestitching"
       id="path-effect1279"
       is_visible="true"
       lpeversion="1"
       count="75"
       startpoint_edge_variation="0;1"
       startpoint_spacing_variation="0;1"
       endpoint_edge_variation="0;1"
       endpoint_spacing_variation="0;1"
       strokepath="M -178.38543,965.21472 C 3.1632261,2666.0626 2503.8985,2537.9175 2639.4896,972.60072"
       prop_scale="1"
       scale_y_rel="false"
       strokepath-nodetypes="cc" />
    <inkscape:path-effect
       effect="curvestitching"
       id="path-effect1273"
       is_visible="true"
       lpeversion="1"
       count="75"
       startpoint_edge_variation="0;1"
       startpoint_spacing_variation="0;1"
       endpoint_edge_variation="0;1"
       endpoint_spacing_variation="0;1"
       strokepath="M -178.38543,965.21472 C 3.1632261,2666.0626 2503.8985,2537.9175 2639.4896,972.60072"
       prop_scale="1"
       scale_y_rel="false"
       strokepath-nodetypes="cc" />
    <inkscape:path-effect
       effect="curvestitching"
       id="path-effect1150"
       is_visible="true"
       lpeversion="1"
       count="75"
       startpoint_edge_variation="0;3582219815"
       startpoint_spacing_variation="0;695783242"
       endpoint_edge_variation="0;3614229316"
       endpoint_spacing_variation="0;3944152385"
       strokepath="M 0,0 H 1"
       prop_scale="1"
       scale_y_rel="false" />
    <inkscape:path-effect
       effect="curvestitching"
       id="path-effect522"
       is_visible="true"
       lpeversion="1"
       count="40"
       startpoint_edge_variation="0;1"
       startpoint_spacing_variation="0;1"
       endpoint_edge_variation="0;1"
       endpoint_spacing_variation="0;1"
       strokepath="m 1338.5397,2072.8961 c 237.5529,254.4105 588.3772,470.1968 605.5535,534.7798 45.1154,169.6344 139.0996,170.0829 174.8185,297.7417 205.9372,736.0156 1126.6052,158.8604 311.2131,-472.6675 -84.8343,-65.7048 193.9926,53.82 57.3603,-87.6961 -391.987,-405.9982 -250.7193,-181.3601 -427.8175,-445.3724"
       prop_scale="1"
       scale_y_rel="false"
       strokepath-nodetypes="cssssc" />
    <inkscape:path-effect
       effect="curvestitching"
       id="path-effect516"
       is_visible="true"
       lpeversion="1"
       count="40"
       startpoint_edge_variation="0;1"
       startpoint_spacing_variation="0;1"
       endpoint_edge_variation="0;1"
       endpoint_spacing_variation="0;1"
       strokepath="m 1338.5397,2072.8961 c 237.5529,254.4105 588.3772,470.1968 605.5535,534.7798 45.1154,169.6344 139.0996,170.0829 174.8185,297.7417 205.9372,736.0156 1126.6052,158.8604 311.2131,-472.6675 -84.8343,-65.7048 193.9926,53.82 57.3603,-87.6961 -391.987,-405.9982 -250.7193,-181.3601 -427.8175,-445.3724"
       prop_scale="1"
       scale_y_rel="false"
       strokepath-nodetypes="cssssc" />
    <inkscape:path-effect
       effect="curvestitching"
       id="path-effect2054"
       is_visible="true"
       lpeversion="1"
       count="40"
       startpoint_edge_variation="0;1"
       startpoint_spacing_variation="0;1"
       endpoint_edge_variation="0;1"
       endpoint_spacing_variation="0;1"
       strokepath="m 1338.5397,2072.8961 c 237.5529,254.4105 588.3772,470.1968 605.5535,534.7798 45.1154,169.6344 139.0996,170.0829 174.8185,297.7417 205.9372,736.0156 1126.6052,158.8604 311.2131,-472.6675 -84.8343,-65.7048 193.9926,53.82 57.3603,-87.6961 -391.987,-405.9982 -250.7193,-181.3601 -427.8175,-445.3724"
       prop_scale="1"
       scale_y_rel="false"
       strokepath-nodetypes="cssssc" />
    <inkscape:path-effect
       effect="curvestitching"
       id="path-effect1840"
       is_visible="true"
       lpeversion="1"
       count="75"
       startpoint_edge_variation="0;1"
       startpoint_spacing_variation="0;1"
       endpoint_edge_variation="0;627273532"
       endpoint_spacing_variation="0;4270658798"
       strokepath="M 0,0 H 1"
       prop_scale="1"
       scale_y_rel="false" />
    <inkscape:path-effect
       effect="curvestitching"
       id="path-effect412"
       is_visible="true"
       lpeversion="1"
       count="45"
       startpoint_edge_variation="0;1"
       startpoint_spacing_variation="0;1"
       endpoint_edge_variation="0;1"
       endpoint_spacing_variation="0;2088763390"
       strokepath="#path1803"
       prop_scale="1"
       scale_y_rel="true" />
  </defs>
  <g
     inkscape:label="Layer 1"
     inkscape:groupmode="layer"
     id="layer1">
    <path
       id="circle1268"
       style="display:inline;opacity:0.98;fill:none;stroke:#e70043;stroke-width:4.07266;stroke-linejoin:bevel;stroke-dasharray:4.07266, 12.218;stroke-dashoffset:0;paint-order:markers stroke fill"
       d="m 1478.6918,145.83837 c 55.6322,1700.84373 820.2,1572.64233 861.5404,7.3225 m -810.5425,14.14667 c -88.3556,1699.45716 683.9004,1636.30236 857.3745,80.07614 m -808.8,-54.54749 c -231.0976,1685.98521 542.6412,1687.83831 846.3669,151.71368 m -800.2773,-122.273 C 1252.2102,1882.8336 2021.5052,1949.3332 2453.2237,444.16199 M 1667.8339,255.50061 C 1156.9646,1878.7495 1916.1551,2009.2155 2473.0707,545.7409 M 1708.5184,292.37169 C 1062.0386,1866.5295 1805.717,2059.9618 2484.3398,648.80076 M 1746.1671,332.72513 C 968.13637,1846.1858 1691.1367,2101.2578 2487.1456,752.82682 M 1780.5,376.34863 C 876.03261,1817.8139 1573.4222,2132.8633 2481.5632,857.2576 M 1811.2159,422.97057 C 786.53945,1781.6147 1453.6148,2154.6305 2467.6468,961.47297 M 1838.0141,472.25526 C 700.46812,1737.9019 1332.7547,2166.5113 2445.451,1064.7896 M 1860.6165,523.80636 C 618.59014,1687.0966 1211.8473,2168.5526 2415.0527,1166.464 M 1878.7866,577.17789 C 541.6029,1629.7079 1091.8325,2160.8783 2376.5701,1265.704 M 1892.3445,631.89142 C 470.1044,1566.3019 973.5624,2143.6632 2330.1772,1361.6851 M 1901.1734,687.45717 C 404.58047,1497.465 857.79046,2117.0996 2276.1105,1453.5716 M 1905.2195,743.39621 C 345.40614,1423.7643 745.17223,2081.363 2214.6682,1540.5387 M 1904.4828,799.26086 C 292.86077,1345.7118 636.27889,2036.5802 2146.2025,1621.7922 M 1899.0023,854.65121 C 247.15511,1263.7348 531.62111,1982.8033 2071.1034,1696.5854 M 1888.8353,909.22608 C 208.46747,1178.1571 431.68097,1919.9931 1989.7793,1764.2294 M 1874.0334,962.70749 C 176.98634,1089.1904 336.9495,1848.0116 1902.6329,1824.0979 m -47.964,-809.3433 C 153.00564,997.16938 248.17613,1766.8428 1810.2666,1875.5169 m 20.8524,-811.0034 C 136.99118,903.60385 167.0876,1677.8186 1714.4781,1917.6431 m 89.1149,-805.8214 C 128.99489,809.04893 94.219463,1581.7397 1616.0046,1950.6532 m 156.2217,-794.0659 C 129.05686,713.947 29.931863,1479.3213 1515.3317,1974.8077 M 1737.1488,1198.655 C 137.22713,618.85192 -25.406284,1371.3767 1412.9393,1990.3054 m 285.5695,-752.4941 C 153.52325,524.42083 -71.454709,1258.8102 1309.3258,1997.287 m 347.1673,-723.4916 C 177.89422,431.39476 -107.93361,1142.6003 1205.0275,1995.8463 m 406.3153,-689.5311 C 210.19367,340.56939 -134.64731,1023.7736 1100.6343,1986.0467 m 462.7269,-650.9783 C 250.16488,252.75892 -151.49744,903.37303 996.79757,1967.9413 M 1512.9146,1359.7642 C 297.43971,168.75706 -158.48396,782.42345 894.23108,1941.5945 m 566.19422,-561.45 C 351.55138,89.299927 -155.69379,661.89895 793.70364,1907.103 M 1406.3568,1396.0007 C 411.95983,15.035839 -143.27851,542.69615 696.02502,1864.6125 M 1351.1947,1407.1848 C 478.08604,-53.493917 -121.42404,425.61729 602.0268,1814.3284 m 693.3981,-400.7158 C 549.35072,-115.86082 -90.316566,311.36513 512.54065,1756.5195 M 1239.5118,1415.2588 C 625.21246,-171.74072 -50.108861,200.55035 428.37714,1691.5124 M 1183.8796,1412.1453 C 705.2006,-220.89256 -0.89126009,93.710374 350.30724,1619.6804 M 1128.8989,1404.3228 C 788.93979,-263.12643 57.329934,-8.6624978 279.04871,1541.4256 M 1074.8784,1391.8487 C 876.1637,-298.26397 124.6446,-106.08617 215.25835,1457.1561 m 806.80585,-82.3947 C 966.717,-326.0938 201.2405,-198.0494 159.53098,1367.2619 m 811.59601,-13.9752 C 1059.6,-346.16646 286.45217,-283.16938 112.76363,1273.0342 m 809.84896,54.7284 C 1153.6614,-358.23139 379.04743,-360.24046 75.260708,1175.8735 M 876.58134,1298.3366 C 1248.515,-362.2693 478.36074,-428.92085 46.730107,1076.2769 M 833.15635,1265.1371 C 1343.6633,-358.22797 583.62866,-488.83969 26.94172,974.72321 M 792.52239,1228.2993 C 1438.5003,-346.06677 693.99167,-539.63638 15.726338,871.69781 M 754.91805,1187.9874 C 1532.3243,-325.79631 808.50626,-580.99548 12.967936,767.71458 M 720.62189,1144.4125 C 1624.3633,-297.51027 926.1666,-612.67482 18.589991,663.33386 M 689.93381,1097.8447 C 1713.8075,-261.40668 1045.9336,-634.52432 32.537051,559.17432 M 663.15351,1048.618 C 1799.8473,-217.79627 1166.7684,-646.49324 54.75346,455.91757 M 640.55858,997.12679 C 1881.7123,-167.09669 1287.6668,-648.62519 85.161731,354.305 M 622.38515,943.81492 C 1958.7056,-109.81324 1407.6891,-641.04109 123.6434,255.12695 M 608.81354,889.15887 C 2030.2285,-46.508667 1525.9827,-623.91251 170.02488,159.20591 m 429.9362,674.44068 C 2095.7941,22.233919 1641.7931,-597.429 224.07034,67.375686 M 595.88272,777.7555 C 2155.0257,95.850052 1754.4633,-561.76366 285.48232,-19.540287 M 596.57952,721.93204 C 2207.6417,173.83001 1863.4202,-517.0413 353.91014,-100.74918 M 602.01385,666.57521 C 2253.429,255.74798 1968.1511,-463.31273 428.96486,-175.50506 m 183.1649,787.5306 C 2292.207,341.28147 2068.1718,-400.5376 510.23946,-243.11973 m 116.63753,801.6803 C 2323.7849,430.21944 2162.9893,-328.57728 597.33253,-302.96725 m 48.85203,809.48838 C 2347.8663,522.2272 2251.8515,-247.4158 689.64258,-354.37387 M 669.67716,456.76084 C 2363.982,615.7955 2333.0287,-158.38489 785.37372,-396.49678 M 697.14705,409.44181 C 2372.0774,710.36977 2405.9834,-62.285011 883.7908,-429.513 M 728.46014,364.65622 C 2372.1101,805.50743 2470.3534,40.168652 984.40959,-453.68321 M 763.48809,322.55946 C 2364.0273,900.65413 2525.7674,148.16237 1086.7515,-469.20563 M 802.08422,283.3656 C 2347.8088,995.15176 2571.8828,260.79086 1190.32,-476.2205 M 844.06304,247.33649 C 2323.5028,1088.2578 2608.4173,377.07438 1294.58,-474.82086 M 889.185,214.76525 c 1402.0683,964.40905 1745.9881,281.21914 509.758,-679.83414 M 937.14789,185.95581 C 2251.3151,1267.0843 2652.0502,616.47551 1502.7588,-447.01603 M 987.5861,161.2008 c 1216.4688,1189.9902 1671.4611,576.31918 617.7283,-581.92573 m -565.2366,561.48534 c 1109.861,1289.99409 1616.1728,717.38018 665.7635,-527.05067 m -611.682,511.13553 C 2089.5072,1505.123 2643.8121,977.4375 1803.5297,-343.85569 M 1149.3445,113.60532 C 2023.3399,1573.7516 2621.9184,1094.6054 1897.5473,-293.6248 M 1205.1465,107.12658 C 1952.018,1636.2088 2590.7572,1208.9388 1987.0618,-235.86438 M 1261.1,105.43571 c 614.9847,1586.73199 1289.383,1214.38899 810.1612,-276.33552 m -754.482,279.41193 C 1796.0131,1741.3852 2501.1881,1426.7237 2149.3736,-99.103199 M 1371.8123,116.30599 C 1712.1809,1783.6697 2442.881,1529.1422 2220.6796,-20.875505 M 1425.8894,128.76075 C 1624.8567,1818.8416 2375.4737,1626.597 2284.5213,63.375629 m -805.8295,82.462741 c 55.6322,1700.84373 820.2,1572.64233 861.5404,7.3225"
       class="UnoptimicedTransforms"
       transform="matrix(2.4532612,0,0,2.4532612,-1066.3121,-32.964628)"
       inkscape:original-d="M 1478.7371,760.29987 A 228.29602,228.29602 0 0 1 1250.441,988.59589 228.29602,228.29602 0 0 1 1022.145,760.29987 228.29602,228.29602 0 0 1 1250.441,532.00385 228.29602,228.29602 0 0 1 1478.7371,760.29987 Z m 861.5398,-0.0635 A 1090.333,1090.333 0 0 1 1249.9438,1850.5694 1090.333,1090.333 0 0 1 159.61084,760.23639 1090.333,1090.333 0 0 1 1249.9438,-330.09662 1090.333,1090.333 0 0 1 2340.2769,760.23639 Z"
       inkscape:path-effect="#path-effect1273" />
    <path
       id="path1275"
       style="display:inline;opacity:0.98;fill:none;stroke:#e70043;stroke-width:4.07266;stroke-linejoin:bevel;stroke-dasharray:4.07266, 12.218;stroke-dashoffset:0;paint-order:markers stroke fill"
       d="m 1478.6918,145.83837 c 55.6322,1700.84373 820.2,1572.64233 861.5404,7.3225 m -810.5425,14.14667 c -88.3556,1699.45716 683.9004,1636.30236 857.3745,80.07614 m -808.8,-54.54749 c -231.0976,1685.98521 542.6412,1687.83831 846.3669,151.71368 m -800.2773,-122.273 C 1252.2102,1882.8336 2021.5052,1949.3332 2453.2237,444.16199 M 1667.8339,255.50061 C 1156.9646,1878.7495 1916.1551,2009.2155 2473.0707,545.7409 M 1708.5184,292.37169 C 1062.0386,1866.5295 1805.717,2059.9618 2484.3398,648.80076 M 1746.1671,332.72513 C 968.13637,1846.1858 1691.1367,2101.2578 2487.1456,752.82682 M 1780.5,376.34863 C 876.03261,1817.8139 1573.4222,2132.8633 2481.5632,857.2576 M 1811.2159,422.97057 C 786.53945,1781.6147 1453.6148,2154.6305 2467.6468,961.47297 M 1838.0141,472.25526 C 700.46812,1737.9019 1332.7547,2166.5113 2445.451,1064.7896 M 1860.6165,523.80636 C 618.59014,1687.0966 1211.8473,2168.5526 2415.0527,1166.464 M 1878.7866,577.17789 C 541.6029,1629.7079 1091.8325,2160.8783 2376.5701,1265.704 M 1892.3445,631.89142 C 470.1044,1566.3019 973.5624,2143.6632 2330.1772,1361.6851 M 1901.1734,687.45717 C 404.58047,1497.465 857.79046,2117.0996 2276.1105,1453.5716 M 1905.2195,743.39621 C 345.40614,1423.7643 745.17223,2081.363 2214.6682,1540.5387 M 1904.4828,799.26086 C 292.86077,1345.7118 636.27889,2036.5802 2146.2025,1621.7922 M 1899.0023,854.65121 C 247.15511,1263.7348 531.62111,1982.8033 2071.1034,1696.5854 M 1888.8353,909.22608 C 208.46747,1178.1571 431.68097,1919.9931 1989.7793,1764.2294 M 1874.0334,962.70749 C 176.98634,1089.1904 336.9495,1848.0116 1902.6329,1824.0979 m -47.964,-809.3433 C 153.00564,997.16938 248.17613,1766.8428 1810.2666,1875.5169 m 20.8524,-811.0034 C 136.99118,903.60385 167.0876,1677.8186 1714.4781,1917.6431 m 89.1149,-805.8214 C 128.99489,809.04893 94.219463,1581.7397 1616.0046,1950.6532 m 156.2217,-794.0659 C 129.05686,713.947 29.931863,1479.3213 1515.3317,1974.8077 M 1737.1488,1198.655 C 137.22713,618.85192 -25.406284,1371.3767 1412.9393,1990.3054 m 285.5695,-752.4941 C 153.52325,524.42083 -71.454709,1258.8102 1309.3258,1997.287 m 347.1673,-723.4916 C 177.89422,431.39476 -107.93361,1142.6003 1205.0275,1995.8463 m 406.3153,-689.5311 C 210.19367,340.56939 -134.64731,1023.7736 1100.6343,1986.0467 m 462.7269,-650.9783 C 250.16488,252.75892 -151.49744,903.37303 996.79757,1967.9413 M 1512.9146,1359.7642 C 297.43971,168.75706 -158.48396,782.42345 894.23108,1941.5945 m 566.19422,-561.45 C 351.55138,89.299927 -155.69379,661.89895 793.70364,1907.103 M 1406.3568,1396.0007 C 411.95983,15.035839 -143.27851,542.69615 696.02502,1864.6125 M 1351.1947,1407.1848 C 478.08604,-53.493917 -121.42404,425.61729 602.0268,1814.3284 m 693.3981,-400.7158 C 549.35072,-115.86082 -90.316566,311.36513 512.54065,1756.5195 M 1239.5118,1415.2588 C 625.21246,-171.74072 -50.108861,200.55035 428.37714,1691.5124 M 1183.8796,1412.1453 C 705.2006,-220.89256 -0.89126009,93.710374 350.30724,1619.6804 M 1128.8989,1404.3228 C 788.93979,-263.12643 57.329934,-8.6624978 279.04871,1541.4256 M 1074.8784,1391.8487 C 876.1637,-298.26397 124.6446,-106.08617 215.25835,1457.1561 m 806.80585,-82.3947 C 966.717,-326.0938 201.2405,-198.0494 159.53098,1367.2619 m 811.59601,-13.9752 C 1059.6,-346.16646 286.45217,-283.16938 112.76363,1273.0342 m 809.84896,54.7284 C 1153.6614,-358.23139 379.04743,-360.24046 75.260708,1175.8735 M 876.58134,1298.3366 C 1248.515,-362.2693 478.36074,-428.92085 46.730107,1076.2769 M 833.15635,1265.1371 C 1343.6633,-358.22797 583.62866,-488.83969 26.94172,974.72321 M 792.52239,1228.2993 C 1438.5003,-346.06677 693.99167,-539.63638 15.726338,871.69781 M 754.91805,1187.9874 C 1532.3243,-325.79631 808.50626,-580.99548 12.967936,767.71458 M 720.62189,1144.4125 C 1624.3633,-297.51027 926.1666,-612.67482 18.589991,663.33386 M 689.93381,1097.8447 C 1713.8075,-261.40668 1045.9336,-634.52432 32.537051,559.17432 M 663.15351,1048.618 C 1799.8473,-217.79627 1166.7684,-646.49324 54.75346,455.91757 M 640.55858,997.12679 C 1881.7123,-167.09669 1287.6668,-648.62519 85.161731,354.305 M 622.38515,943.81492 C 1958.7056,-109.81324 1407.6891,-641.04109 123.6434,255.12695 M 608.81354,889.15887 C 2030.2285,-46.508667 1525.9827,-623.91251 170.02488,159.20591 m 429.9362,674.44068 C 2095.7941,22.233919 1641.7931,-597.429 224.07034,67.375686 M 595.88272,777.7555 C 2155.0257,95.850052 1754.4633,-561.76366 285.48232,-19.540287 M 596.57952,721.93204 C 2207.6417,173.83001 1863.4202,-517.0413 353.91014,-100.74918 M 602.01385,666.57521 C 2253.429,255.74798 1968.1511,-463.31273 428.96486,-175.50506 m 183.1649,787.5306 C 2292.207,341.28147 2068.1718,-400.5376 510.23946,-243.11973 m 116.63753,801.6803 C 2323.7849,430.21944 2162.9893,-328.57728 597.33253,-302.96725 m 48.85203,809.48838 C 2347.8663,522.2272 2251.8515,-247.4158 689.64258,-354.37387 M 669.67716,456.76084 C 2363.982,615.7955 2333.0287,-158.38489 785.37372,-396.49678 M 697.14705,409.44181 C 2372.0774,710.36977 2405.9834,-62.285011 883.7908,-429.513 M 728.46014,364.65622 C 2372.1101,805.50743 2470.3534,40.168652 984.40959,-453.68321 M 763.48809,322.55946 C 2364.0273,900.65413 2525.7674,148.16237 1086.7515,-469.20563 M 802.08422,283.3656 C 2347.8088,995.15176 2571.8828,260.79086 1190.32,-476.2205 M 844.06304,247.33649 C 2323.5028,1088.2578 2608.4173,377.07438 1294.58,-474.82086 M 889.185,214.76525 c 1402.0683,964.40905 1745.9881,281.21914 509.758,-679.83414 M 937.14789,185.95581 C 2251.3151,1267.0843 2652.0502,616.47551 1502.7588,-447.01603 M 987.5861,161.2008 c 1216.4688,1189.9902 1671.4611,576.31918 617.7283,-581.92573 m -565.2366,561.48534 c 1109.861,1289.99409 1616.1728,717.38018 665.7635,-527.05067 m -611.682,511.13553 C 2089.5072,1505.123 2643.8121,977.4375 1803.5297,-343.85569 M 1149.3445,113.60532 C 2023.3399,1573.7516 2621.9184,1094.6054 1897.5473,-293.6248 M 1205.1465,107.12658 C 1952.018,1636.2088 2590.7572,1208.9388 1987.0618,-235.86438 M 1261.1,105.43571 c 614.9847,1586.73199 1289.383,1214.38899 810.1612,-276.33552 m -754.482,279.41193 C 1796.0131,1741.3852 2501.1881,1426.7237 2149.3736,-99.103199 M 1371.8123,116.30599 C 1712.1809,1783.6697 2442.881,1529.1422 2220.6796,-20.875505 M 1425.8894,128.76075 C 1624.8567,1818.8416 2375.4737,1626.597 2284.5213,63.375629 m -805.8295,82.462741 c 55.6322,1700.84373 820.2,1572.64233 861.5404,7.3225"
       class="UnoptimicedTransforms"
       transform="matrix(0.95435816,0,0,0.95435816,807.40145,1107.0008)"
       inkscape:original-d="M 1478.7371,760.29987 A 228.29602,228.29602 0 0 1 1250.441,988.59589 228.29602,228.29602 0 0 1 1022.145,760.29987 228.29602,228.29602 0 0 1 1250.441,532.00385 228.29602,228.29602 0 0 1 1478.7371,760.29987 Z m 861.5398,-0.0635 A 1090.333,1090.333 0 0 1 1249.9438,1850.5694 1090.333,1090.333 0 0 1 159.61084,760.23639 1090.333,1090.333 0 0 1 1249.9438,-330.09662 1090.333,1090.333 0 0 1 2340.2769,760.23639 Z"
       inkscape:path-effect="#path-effect1279" />
    <path
       id="path1281"
       style="opacity:0.98;fill:none;stroke:#e70043;stroke-width:4.07266;stroke-linejoin:bevel;stroke-dasharray:4.07266, 12.218;stroke-dashoffset:0;paint-order:markers stroke fill"
       d="m 1478.6918,145.83837 c 55.6322,1700.84373 820.2,1572.64233 861.5404,7.3225 m -810.5425,14.14667 c -88.3556,1699.45716 683.9004,1636.30236 857.3745,80.07614 m -808.8,-54.54749 c -231.0976,1685.98521 542.6412,1687.83831 846.3669,151.71368 m -800.2773,-122.273 C 1252.2102,1882.8336 2021.5052,1949.3332 2453.2237,444.16199 M 1667.8339,255.50061 C 1156.9646,1878.7495 1916.1551,2009.2155 2473.0707,545.7409 M 1708.5184,292.37169 C 1062.0386,1866.5295 1805.717,2059.9618 2484.3398,648.80076 M 1746.1671,332.72513 C 968.13637,1846.1858 1691.1367,2101.2578 2487.1456,752.82682 M 1780.5,376.34863 C 876.03261,1817.8139 1573.4222,2132.8633 2481.5632,857.2576 M 1811.2159,422.97057 C 786.53945,1781.6147 1453.6148,2154.6305 2467.6468,961.47297 M 1838.0141,472.25526 C 700.46812,1737.9019 1332.7547,2166.5113 2445.451,1064.7896 M 1860.6165,523.80636 C 618.59014,1687.0966 1211.8473,2168.5526 2415.0527,1166.464 M 1878.7866,577.17789 C 541.6029,1629.7079 1091.8325,2160.8783 2376.5701,1265.704 M 1892.3445,631.89142 C 470.1044,1566.3019 973.5624,2143.6632 2330.1772,1361.6851 M 1901.1734,687.45717 C 404.58047,1497.465 857.79046,2117.0996 2276.1105,1453.5716 M 1905.2195,743.39621 C 345.40614,1423.7643 745.17223,2081.363 2214.6682,1540.5387 M 1904.4828,799.26086 C 292.86077,1345.7118 636.27889,2036.5802 2146.2025,1621.7922 M 1899.0023,854.65121 C 247.15511,1263.7348 531.62111,1982.8033 2071.1034,1696.5854 M 1888.8353,909.22608 C 208.46747,1178.1571 431.68097,1919.9931 1989.7793,1764.2294 M 1874.0334,962.70749 C 176.98634,1089.1904 336.9495,1848.0116 1902.6329,1824.0979 m -47.964,-809.3433 C 153.00564,997.16938 248.17613,1766.8428 1810.2666,1875.5169 m 20.8524,-811.0034 C 136.99118,903.60385 167.0876,1677.8186 1714.4781,1917.6431 m 89.1149,-805.8214 C 128.99489,809.04893 94.219463,1581.7397 1616.0046,1950.6532 m 156.2217,-794.0659 C 129.05686,713.947 29.931863,1479.3213 1515.3317,1974.8077 M 1737.1488,1198.655 C 137.22713,618.85192 -25.406284,1371.3767 1412.9393,1990.3054 m 285.5695,-752.4941 C 153.52325,524.42083 -71.454709,1258.8102 1309.3258,1997.287 m 347.1673,-723.4916 C 177.89422,431.39476 -107.93361,1142.6003 1205.0275,1995.8463 m 406.3153,-689.5311 C 210.19367,340.56939 -134.64731,1023.7736 1100.6343,1986.0467 m 462.7269,-650.9783 C 250.16488,252.75892 -151.49744,903.37303 996.79757,1967.9413 M 1512.9146,1359.7642 C 297.43971,168.75706 -158.48396,782.42345 894.23108,1941.5945 m 566.19422,-561.45 C 351.55138,89.299927 -155.69379,661.89895 793.70364,1907.103 M 1406.3568,1396.0007 C 411.95983,15.035839 -143.27851,542.69615 696.02502,1864.6125 M 1351.1947,1407.1848 C 478.08604,-53.493917 -121.42404,425.61729 602.0268,1814.3284 m 693.3981,-400.7158 C 549.35072,-115.86082 -90.316566,311.36513 512.54065,1756.5195 M 1239.5118,1415.2588 C 625.21246,-171.74072 -50.108861,200.55035 428.37714,1691.5124 M 1183.8796,1412.1453 C 705.2006,-220.89256 -0.89126009,93.710374 350.30724,1619.6804 M 1128.8989,1404.3228 C 788.93979,-263.12643 57.329934,-8.6624978 279.04871,1541.4256 M 1074.8784,1391.8487 C 876.1637,-298.26397 124.6446,-106.08617 215.25835,1457.1561 m 806.80585,-82.3947 C 966.717,-326.0938 201.2405,-198.0494 159.53098,1367.2619 m 811.59601,-13.9752 C 1059.6,-346.16646 286.45217,-283.16938 112.76363,1273.0342 m 809.84896,54.7284 C 1153.6614,-358.23139 379.04743,-360.24046 75.260708,1175.8735 M 876.58134,1298.3366 C 1248.515,-362.2693 478.36074,-428.92085 46.730107,1076.2769 M 833.15635,1265.1371 C 1343.6633,-358.22797 583.62866,-488.83969 26.94172,974.72321 M 792.52239,1228.2993 C 1438.5003,-346.06677 693.99167,-539.63638 15.726338,871.69781 M 754.91805,1187.9874 C 1532.3243,-325.79631 808.50626,-580.99548 12.967936,767.71458 M 720.62189,1144.4125 C 1624.3633,-297.51027 926.1666,-612.67482 18.589991,663.33386 M 689.93381,1097.8447 C 1713.8075,-261.40668 1045.9336,-634.52432 32.537051,559.17432 M 663.15351,1048.618 C 1799.8473,-217.79627 1166.7684,-646.49324 54.75346,455.91757 M 640.55858,997.12679 C 1881.7123,-167.09669 1287.6668,-648.62519 85.161731,354.305 M 622.38515,943.81492 C 1958.7056,-109.81324 1407.6891,-641.04109 123.6434,255.12695 M 608.81354,889.15887 C 2030.2285,-46.508667 1525.9827,-623.91251 170.02488,159.20591 m 429.9362,674.44068 C 2095.7941,22.233919 1641.7931,-597.429 224.07034,67.375686 M 595.88272,777.7555 C 2155.0257,95.850052 1754.4633,-561.76366 285.48232,-19.540287 M 596.57952,721.93204 C 2207.6417,173.83001 1863.4202,-517.0413 353.91014,-100.74918 M 602.01385,666.57521 C 2253.429,255.74798 1968.1511,-463.31273 428.96486,-175.50506 m 183.1649,787.5306 C 2292.207,341.28147 2068.1718,-400.5376 510.23946,-243.11973 m 116.63753,801.6803 C 2323.7849,430.21944 2162.9893,-328.57728 597.33253,-302.96725 m 48.85203,809.48838 C 2347.8663,522.2272 2251.8515,-247.4158 689.64258,-354.37387 M 669.67716,456.76084 C 2363.982,615.7955 2333.0287,-158.38489 785.37372,-396.49678 M 697.14705,409.44181 C 2372.0774,710.36977 2405.9834,-62.285011 883.7908,-429.513 M 728.46014,364.65622 C 2372.1101,805.50743 2470.3534,40.168652 984.40959,-453.68321 M 763.48809,322.55946 C 2364.0273,900.65413 2525.7674,148.16237 1086.7515,-469.20563 M 802.08422,283.3656 C 2347.8088,995.15176 2571.8828,260.79086 1190.32,-476.2205 M 844.06304,247.33649 C 2323.5028,1088.2578 2608.4173,377.07438 1294.58,-474.82086 M 889.185,214.76525 c 1402.0683,964.40905 1745.9881,281.21914 509.758,-679.83414 M 937.14789,185.95581 C 2251.3151,1267.0843 2652.0502,616.47551 1502.7588,-447.01603 M 987.5861,161.2008 c 1216.4688,1189.9902 1671.4611,576.31918 617.7283,-581.92573 m -565.2366,561.48534 c 1109.861,1289.99409 1616.1728,717.38018 665.7635,-527.05067 m -611.682,511.13553 C 2089.5072,1505.123 2643.8121,977.4375 1803.5297,-343.85569 M 1149.3445,113.60532 C 2023.3399,1573.7516 2621.9184,1094.6054 1897.5473,-293.6248 M 1205.1465,107.12658 C 1952.018,1636.2088 2590.7572,1208.9388 1987.0618,-235.86438 M 1261.1,105.43571 c 614.9847,1586.73199 1289.383,1214.38899 810.1612,-276.33552 m -754.482,279.41193 C 1796.0131,1741.3852 2501.1881,1426.7237 2149.3736,-99.103199 M 1371.8123,116.30599 C 1712.1809,1783.6697 2442.881,1529.1422 2220.6796,-20.875505 M 1425.8894,128.76075 C 1624.8567,1818.8416 2375.4737,1626.597 2284.5213,63.375629 m -805.8295,82.462741 c 55.6322,1700.84373 820.2,1572.64233 861.5404,7.3225"
       class="UnoptimicedTransforms"
       transform="matrix(0.33707487,0,0,0.33707487,1579.0409,1576.4651)"
       inkscape:original-d="M 1478.7371,760.29987 A 228.29602,228.29602 0 0 1 1250.441,988.59589 228.29602,228.29602 0 0 1 1022.145,760.29987 228.29602,228.29602 0 0 1 1250.441,532.00385 228.29602,228.29602 0 0 1 1478.7371,760.29987 Z m 861.5398,-0.0635 A 1090.333,1090.333 0 0 1 1249.9438,1850.5694 1090.333,1090.333 0 0 1 159.61084,760.23639 1090.333,1090.333 0 0 1 1249.9438,-330.09662 1090.333,1090.333 0 0 1 2340.2769,760.23639 Z"
       inkscape:path-effect="#path-effect1285" />
    <path
       id="path3650"
       style="display:inline;opacity:0.98;fill:none;stroke:#e70043;stroke-width:4.07266;stroke-linejoin:bevel;stroke-dasharray:4.07266, 12.218;stroke-dashoffset:0;paint-order:markers stroke fill"
       d="m 1478.6918,145.83837 c 55.6322,1700.84373 820.2,1572.64233 861.5404,7.3225 m -810.5425,14.14667 c -88.3556,1699.45716 683.9004,1636.30236 857.3745,80.07614 m -808.8,-54.54749 c -231.0976,1685.98521 542.6412,1687.83831 846.3669,151.71368 m -800.2773,-122.273 C 1252.2102,1882.8336 2021.5052,1949.3332 2453.2237,444.16199 M 1667.8339,255.50061 C 1156.9646,1878.7495 1916.1551,2009.2155 2473.0707,545.7409 M 1708.5184,292.37169 C 1062.0386,1866.5295 1805.717,2059.9618 2484.3398,648.80076 M 1746.1671,332.72513 C 968.13637,1846.1858 1691.1367,2101.2578 2487.1456,752.82682 M 1780.5,376.34863 C 876.03261,1817.8139 1573.4222,2132.8633 2481.5632,857.2576 M 1811.2159,422.97057 C 786.53945,1781.6147 1453.6148,2154.6305 2467.6468,961.47297 M 1838.0141,472.25526 C 700.46812,1737.9019 1332.7547,2166.5113 2445.451,1064.7896 M 1860.6165,523.80636 C 618.59014,1687.0966 1211.8473,2168.5526 2415.0527,1166.464 M 1878.7866,577.17789 C 541.6029,1629.7079 1091.8325,2160.8783 2376.5701,1265.704 M 1892.3445,631.89142 C 470.1044,1566.3019 973.5624,2143.6632 2330.1772,1361.6851 M 1901.1734,687.45717 C 404.58047,1497.465 857.79046,2117.0996 2276.1105,1453.5716 M 1905.2195,743.39621 C 345.40614,1423.7643 745.17223,2081.363 2214.6682,1540.5387 M 1904.4828,799.26086 C 292.86077,1345.7118 636.27889,2036.5802 2146.2025,1621.7922 M 1899.0023,854.65121 C 247.15511,1263.7348 531.62111,1982.8033 2071.1034,1696.5854 M 1888.8353,909.22608 C 208.46747,1178.1571 431.68097,1919.9931 1989.7793,1764.2294 M 1874.0334,962.70749 C 176.98634,1089.1904 336.9495,1848.0116 1902.6329,1824.0979 m -47.964,-809.3433 C 153.00564,997.16938 248.17613,1766.8428 1810.2666,1875.5169 m 20.8524,-811.0034 C 136.99118,903.60385 167.0876,1677.8186 1714.4781,1917.6431 m 89.1149,-805.8214 C 128.99489,809.04893 94.219463,1581.7397 1616.0046,1950.6532 m 156.2217,-794.0659 C 129.05686,713.947 29.931863,1479.3213 1515.3317,1974.8077 M 1737.1488,1198.655 C 137.22713,618.85192 -25.406284,1371.3767 1412.9393,1990.3054 m 285.5695,-752.4941 C 153.52325,524.42083 -71.454709,1258.8102 1309.3258,1997.287 m 347.1673,-723.4916 C 177.89422,431.39476 -107.93361,1142.6003 1205.0275,1995.8463 m 406.3153,-689.5311 C 210.19367,340.56939 -134.64731,1023.7736 1100.6343,1986.0467 m 462.7269,-650.9783 C 250.16488,252.75892 -151.49744,903.37303 996.79757,1967.9413 M 1512.9146,1359.7642 C 297.43971,168.75706 -158.48396,782.42345 894.23108,1941.5945 m 566.19422,-561.45 C 351.55138,89.299927 -155.69379,661.89895 793.70364,1907.103 M 1406.3568,1396.0007 C 411.95983,15.035839 -143.27851,542.69615 696.02502,1864.6125 M 1351.1947,1407.1848 C 478.08604,-53.493917 -121.42404,425.61729 602.0268,1814.3284 m 693.3981,-400.7158 C 549.35072,-115.86082 -90.316566,311.36513 512.54065,1756.5195 M 1239.5118,1415.2588 C 625.21246,-171.74072 -50.108861,200.55035 428.37714,1691.5124 M 1183.8796,1412.1453 C 705.2006,-220.89256 -0.89126009,93.710374 350.30724,1619.6804 M 1128.8989,1404.3228 C 788.93979,-263.12643 57.329934,-8.6624978 279.04871,1541.4256 M 1074.8784,1391.8487 C 876.1637,-298.26397 124.6446,-106.08617 215.25835,1457.1561 m 806.80585,-82.3947 C 966.717,-326.0938 201.2405,-198.0494 159.53098,1367.2619 m 811.59601,-13.9752 C 1059.6,-346.16646 286.45217,-283.16938 112.76363,1273.0342 m 809.84896,54.7284 C 1153.6614,-358.23139 379.04743,-360.24046 75.260708,1175.8735 M 876.58134,1298.3366 C 1248.515,-362.2693 478.36074,-428.92085 46.730107,1076.2769 M 833.15635,1265.1371 C 1343.6633,-358.22797 583.62866,-488.83969 26.94172,974.72321 M 792.52239,1228.2993 C 1438.5003,-346.06677 693.99167,-539.63638 15.726338,871.69781 M 754.91805,1187.9874 C 1532.3243,-325.79631 808.50626,-580.99548 12.967936,767.71458 M 720.62189,1144.4125 C 1624.3633,-297.51027 926.1666,-612.67482 18.589991,663.33386 M 689.93381,1097.8447 C 1713.8075,-261.40668 1045.9336,-634.52432 32.537051,559.17432 M 663.15351,1048.618 C 1799.8473,-217.79627 1166.7684,-646.49324 54.75346,455.91757 M 640.55858,997.12679 C 1881.7123,-167.09669 1287.6668,-648.62519 85.161731,354.305 M 622.38515,943.81492 C 1958.7056,-109.81324 1407.6891,-641.04109 123.6434,255.12695 M 608.81354,889.15887 C 2030.2285,-46.508667 1525.9827,-623.91251 170.02488,159.20591 m 429.9362,674.44068 C 2095.7941,22.233919 1641.7931,-597.429 224.07034,67.375686 M 595.88272,777.7555 C 2155.0257,95.850052 1754.4633,-561.76366 285.48232,-19.540287 M 596.57952,721.93204 C 2207.6417,173.83001 1863.4202,-517.0413 353.91014,-100.74918 M 602.01385,666.57521 C 2253.429,255.74798 1968.1511,-463.31273 428.96486,-175.50506 m 183.1649,787.5306 C 2292.207,341.28147 2068.1718,-400.5376 510.23946,-243.11973 m 116.63753,801.6803 C 2323.7849,430.21944 2162.9893,-328.57728 597.33253,-302.96725 m 48.85203,809.48838 C 2347.8663,522.2272 2251.8515,-247.4158 689.64258,-354.37387 M 669.67716,456.76084 C 2363.982,615.7955 2333.0287,-158.38489 785.37372,-396.49678 M 697.14705,409.44181 C 2372.0774,710.36977 2405.9834,-62.285011 883.7908,-429.513 M 728.46014,364.65622 C 2372.1101,805.50743 2470.3534,40.168652 984.40959,-453.68321 M 763.48809,322.55946 C 2364.0273,900.65413 2525.7674,148.16237 1086.7515,-469.20563 M 802.08422,283.3656 C 2347.8088,995.15176 2571.8828,260.79086 1190.32,-476.2205 M 844.06304,247.33649 C 2323.5028,1088.2578 2608.4173,377.07438 1294.58,-474.82086 M 889.185,214.76525 c 1402.0683,964.40905 1745.9881,281.21914 509.758,-679.83414 M 937.14789,185.95581 C 2251.3151,1267.0843 2652.0502,616.47551 1502.7588,-447.01603 M 987.5861,161.2008 c 1216.4688,1189.9902 1671.4611,576.31918 617.7283,-581.92573 m -565.2366,561.48534 c 1109.861,1289.99409 1616.1728,717.38018 665.7635,-527.05067 m -611.682,511.13553 C 2089.5072,1505.123 2643.8121,977.4375 1803.5297,-343.85569 M 1149.3445,113.60532 C 2023.3399,1573.7516 2621.9184,1094.6054 1897.5473,-293.6248 M 1205.1465,107.12658 C 1952.018,1636.2088 2590.7572,1208.9388 1987.0618,-235.86438 M 1261.1,105.43571 c 614.9847,1586.73199 1289.383,1214.38899 810.1612,-276.33552 m -754.482,279.41193 C 1796.0131,1741.3852 2501.1881,1426.7237 2149.3736,-99.103199 M 1371.8123,116.30599 C 1712.1809,1783.6697 2442.881,1529.1422 2220.6796,-20.875505 M 1425.8894,128.76075 C 1624.8567,1818.8416 2375.4737,1626.597 2284.5213,63.375629 m -805.8295,82.462741 c 55.6322,1700.84373 820.2,1572.64233 861.5404,7.3225"
       class="UnoptimicedTransforms"
       transform="matrix(0.48654071,0,0,0.48654071,1392.1119,1462.8267)"
       inkscape:original-d="M 1478.7371,760.29987 A 228.29602,228.29602 0 0 1 1250.441,988.59589 228.29602,228.29602 0 0 1 1022.145,760.29987 228.29602,228.29602 0 0 1 1250.441,532.00385 228.29602,228.29602 0 0 1 1478.7371,760.29987 Z m 861.5398,-0.0635 A 1090.333,1090.333 0 0 1 1249.9438,1850.5694 1090.333,1090.333 0 0 1 159.61084,760.23639 1090.333,1090.333 0 0 1 1249.9438,-330.09662 1090.333,1090.333 0 0 1 2340.2769,760.23639 Z"
       inkscape:path-effect="#path-effect3654" />
    <path
       id="path3656"
       style="display:inline;opacity:0.98;fill:none;stroke:#e70043;stroke-width:4.07266;stroke-linejoin:bevel;stroke-dasharray:4.07266, 12.218;stroke-dashoffset:0;paint-order:markers stroke fill"
       d="m 1478.6918,145.83837 c 55.6322,1700.84373 820.2,1572.64233 861.5404,7.3225 m -810.5425,14.14667 c -88.3556,1699.45716 683.9004,1636.30236 857.3745,80.07614 m -808.8,-54.54749 c -231.0976,1685.98521 542.6412,1687.83831 846.3669,151.71368 m -800.2773,-122.273 C 1252.2102,1882.8336 2021.5052,1949.3332 2453.2237,444.16199 M 1667.8339,255.50061 C 1156.9646,1878.7495 1916.1551,2009.2155 2473.0707,545.7409 M 1708.5184,292.37169 C 1062.0386,1866.5295 1805.717,2059.9618 2484.3398,648.80076 M 1746.1671,332.72513 C 968.13637,1846.1858 1691.1367,2101.2578 2487.1456,752.82682 M 1780.5,376.34863 C 876.03261,1817.8139 1573.4222,2132.8633 2481.5632,857.2576 M 1811.2159,422.97057 C 786.53945,1781.6147 1453.6148,2154.6305 2467.6468,961.47297 M 1838.0141,472.25526 C 700.46812,1737.9019 1332.7547,2166.5113 2445.451,1064.7896 M 1860.6165,523.80636 C 618.59014,1687.0966 1211.8473,2168.5526 2415.0527,1166.464 M 1878.7866,577.17789 C 541.6029,1629.7079 1091.8325,2160.8783 2376.5701,1265.704 M 1892.3445,631.89142 C 470.1044,1566.3019 973.5624,2143.6632 2330.1772,1361.6851 M 1901.1734,687.45717 C 404.58047,1497.465 857.79046,2117.0996 2276.1105,1453.5716 M 1905.2195,743.39621 C 345.40614,1423.7643 745.17223,2081.363 2214.6682,1540.5387 M 1904.4828,799.26086 C 292.86077,1345.7118 636.27889,2036.5802 2146.2025,1621.7922 M 1899.0023,854.65121 C 247.15511,1263.7348 531.62111,1982.8033 2071.1034,1696.5854 M 1888.8353,909.22608 C 208.46747,1178.1571 431.68097,1919.9931 1989.7793,1764.2294 M 1874.0334,962.70749 C 176.98634,1089.1904 336.9495,1848.0116 1902.6329,1824.0979 m -47.964,-809.3433 C 153.00564,997.16938 248.17613,1766.8428 1810.2666,1875.5169 m 20.8524,-811.0034 C 136.99118,903.60385 167.0876,1677.8186 1714.4781,1917.6431 m 89.1149,-805.8214 C 128.99489,809.04893 94.219463,1581.7397 1616.0046,1950.6532 m 156.2217,-794.0659 C 129.05686,713.947 29.931863,1479.3213 1515.3317,1974.8077 M 1737.1488,1198.655 C 137.22713,618.85192 -25.406284,1371.3767 1412.9393,1990.3054 m 285.5695,-752.4941 C 153.52325,524.42083 -71.454709,1258.8102 1309.3258,1997.287 m 347.1673,-723.4916 C 177.89422,431.39476 -107.93361,1142.6003 1205.0275,1995.8463 m 406.3153,-689.5311 C 210.19367,340.56939 -134.64731,1023.7736 1100.6343,1986.0467 m 462.7269,-650.9783 C 250.16488,252.75892 -151.49744,903.37303 996.79757,1967.9413 M 1512.9146,1359.7642 C 297.43971,168.75706 -158.48396,782.42345 894.23108,1941.5945 m 566.19422,-561.45 C 351.55138,89.299927 -155.69379,661.89895 793.70364,1907.103 M 1406.3568,1396.0007 C 411.95983,15.035839 -143.27851,542.69615 696.02502,1864.6125 M 1351.1947,1407.1848 C 478.08604,-53.493917 -121.42404,425.61729 602.0268,1814.3284 m 693.3981,-400.7158 C 549.35072,-115.86082 -90.316566,311.36513 512.54065,1756.5195 M 1239.5118,1415.2588 C 625.21246,-171.74072 -50.108861,200.55035 428.37714,1691.5124 M 1183.8796,1412.1453 C 705.2006,-220.89256 -0.89126009,93.710374 350.30724,1619.6804 M 1128.8989,1404.3228 C 788.93979,-263.12643 57.329934,-8.6624978 279.04871,1541.4256 M 1074.8784,1391.8487 C 876.1637,-298.26397 124.6446,-106.08617 215.25835,1457.1561 m 806.80585,-82.3947 C 966.717,-326.0938 201.2405,-198.0494 159.53098,1367.2619 m 811.59601,-13.9752 C 1059.6,-346.16646 286.45217,-283.16938 112.76363,1273.0342 m 809.84896,54.7284 C 1153.6614,-358.23139 379.04743,-360.24046 75.260708,1175.8735 M 876.58134,1298.3366 C 1248.515,-362.2693 478.36074,-428.92085 46.730107,1076.2769 M 833.15635,1265.1371 C 1343.6633,-358.22797 583.62866,-488.83969 26.94172,974.72321 M 792.52239,1228.2993 C 1438.5003,-346.06677 693.99167,-539.63638 15.726338,871.69781 M 754.91805,1187.9874 C 1532.3243,-325.79631 808.50626,-580.99548 12.967936,767.71458 M 720.62189,1144.4125 C 1624.3633,-297.51027 926.1666,-612.67482 18.589991,663.33386 M 689.93381,1097.8447 C 1713.8075,-261.40668 1045.9336,-634.52432 32.537051,559.17432 M 663.15351,1048.618 C 1799.8473,-217.79627 1166.7684,-646.49324 54.75346,455.91757 M 640.55858,997.12679 C 1881.7123,-167.09669 1287.6668,-648.62519 85.161731,354.305 M 622.38515,943.81492 C 1958.7056,-109.81324 1407.6891,-641.04109 123.6434,255.12695 M 608.81354,889.15887 C 2030.2285,-46.508667 1525.9827,-623.91251 170.02488,159.20591 m 429.9362,674.44068 C 2095.7941,22.233919 1641.7931,-597.429 224.07034,67.375686 M 595.88272,777.7555 C 2155.0257,95.850052 1754.4633,-561.76366 285.48232,-19.540287 M 596.57952,721.93204 C 2207.6417,173.83001 1863.4202,-517.0413 353.91014,-100.74918 M 602.01385,666.57521 C 2253.429,255.74798 1968.1511,-463.31273 428.96486,-175.50506 m 183.1649,787.5306 C 2292.207,341.28147 2068.1718,-400.5376 510.23946,-243.11973 m 116.63753,801.6803 C 2323.7849,430.21944 2162.9893,-328.57728 597.33253,-302.96725 m 48.85203,809.48838 C 2347.8663,522.2272 2251.8515,-247.4158 689.64258,-354.37387 M 669.67716,456.76084 C 2363.982,615.7955 2333.0287,-158.38489 785.37372,-396.49678 M 697.14705,409.44181 C 2372.0774,710.36977 2405.9834,-62.285011 883.7908,-429.513 M 728.46014,364.65622 C 2372.1101,805.50743 2470.3534,40.168652 984.40959,-453.68321 M 763.48809,322.55946 C 2364.0273,900.65413 2525.7674,148.16237 1086.7515,-469.20563 M 802.08422,283.3656 C 2347.8088,995.15176 2571.8828,260.79086 1190.32,-476.2205 M 844.06304,247.33649 C 2323.5028,1088.2578 2608.4173,377.07438 1294.58,-474.82086 M 889.185,214.76525 c 1402.0683,964.40905 1745.9881,281.21914 509.758,-679.83414 M 937.14789,185.95581 C 2251.3151,1267.0843 2652.0502,616.47551 1502.7588,-447.01603 M 987.5861,161.2008 c 1216.4688,1189.9902 1671.4611,576.31918 617.7283,-581.92573 m -565.2366,561.48534 c 1109.861,1289.99409 1616.1728,717.38018 665.7635,-527.05067 m -611.682,511.13553 C 2089.5072,1505.123 2643.8121,977.4375 1803.5297,-343.85569 M 1149.3445,113.60532 C 2023.3399,1573.7516 2621.9184,1094.6054 1897.5473,-293.6248 M 1205.1465,107.12658 C 1952.018,1636.2088 2590.7572,1208.9388 1987.0618,-235.86438 M 1261.1,105.43571 c 614.9847,1586.73199 1289.383,1214.38899 810.1612,-276.33552 m -754.482,279.41193 C 1796.0131,1741.3852 2501.1881,1426.7237 2149.3736,-99.103199 M 1371.8123,116.30599 C 1712.1809,1783.6697 2442.881,1529.1422 2220.6796,-20.875505 M 1425.8894,128.76075 C 1624.8567,1818.8416 2375.4737,1626.597 2284.5213,63.375629 m -805.8295,82.462741 c 55.6322,1700.84373 820.2,1572.64233 861.5404,7.3225"
       class="UnoptimicedTransforms"
       transform="matrix(1.1946848,0,0,1.1946848,506.80234,924.29097)"
       inkscape:original-d="M 1478.7371,760.29987 A 228.29602,228.29602 0 0 1 1250.441,988.59589 228.29602,228.29602 0 0 1 1022.145,760.29987 228.29602,228.29602 0 0 1 1250.441,532.00385 228.29602,228.29602 0 0 1 1478.7371,760.29987 Z m 861.5398,-0.0635 A 1090.333,1090.333 0 0 1 1249.9438,1850.5694 1090.333,1090.333 0 0 1 159.61084,760.23639 1090.333,1090.333 0 0 1 1249.9438,-330.09662 1090.333,1090.333 0 0 1 2340.2769,760.23639 Z"
       inkscape:path-effect="#path-effect3660" />
    <path
       id="path3662"
       style="display:inline;opacity:0.98;fill:none;stroke:#e70043;stroke-width:4.07266;stroke-linejoin:bevel;stroke-dasharray:4.07266, 12.218;stroke-dashoffset:0;paint-order:markers stroke fill"
       d="m 1478.6918,145.83837 c 55.6322,1700.84373 820.2,1572.64233 861.5404,7.3225 m -810.5425,14.14667 c -88.3556,1699.45716 683.9004,1636.30236 857.3745,80.07614 m -808.8,-54.54749 c -231.0976,1685.98521 542.6412,1687.83831 846.3669,151.71368 m -800.2773,-122.273 C 1252.2102,1882.8336 2021.5052,1949.3332 2453.2237,444.16199 M 1667.8339,255.50061 C 1156.9646,1878.7495 1916.1551,2009.2155 2473.0707,545.7409 M 1708.5184,292.37169 C 1062.0386,1866.5295 1805.717,2059.9618 2484.3398,648.80076 M 1746.1671,332.72513 C 968.13637,1846.1858 1691.1367,2101.2578 2487.1456,752.82682 M 1780.5,376.34863 C 876.03261,1817.8139 1573.4222,2132.8633 2481.5632,857.2576 M 1811.2159,422.97057 C 786.53945,1781.6147 1453.6148,2154.6305 2467.6468,961.47297 M 1838.0141,472.25526 C 700.46812,1737.9019 1332.7547,2166.5113 2445.451,1064.7896 M 1860.6165,523.80636 C 618.59014,1687.0966 1211.8473,2168.5526 2415.0527,1166.464 M 1878.7866,577.17789 C 541.6029,1629.7079 1091.8325,2160.8783 2376.5701,1265.704 M 1892.3445,631.89142 C 470.1044,1566.3019 973.5624,2143.6632 2330.1772,1361.6851 M 1901.1734,687.45717 C 404.58047,1497.465 857.79046,2117.0996 2276.1105,1453.5716 M 1905.2195,743.39621 C 345.40614,1423.7643 745.17223,2081.363 2214.6682,1540.5387 M 1904.4828,799.26086 C 292.86077,1345.7118 636.27889,2036.5802 2146.2025,1621.7922 M 1899.0023,854.65121 C 247.15511,1263.7348 531.62111,1982.8033 2071.1034,1696.5854 M 1888.8353,909.22608 C 208.46747,1178.1571 431.68097,1919.9931 1989.7793,1764.2294 M 1874.0334,962.70749 C 176.98634,1089.1904 336.9495,1848.0116 1902.6329,1824.0979 m -47.964,-809.3433 C 153.00564,997.16938 248.17613,1766.8428 1810.2666,1875.5169 m 20.8524,-811.0034 C 136.99118,903.60385 167.0876,1677.8186 1714.4781,1917.6431 m 89.1149,-805.8214 C 128.99489,809.04893 94.219463,1581.7397 1616.0046,1950.6532 m 156.2217,-794.0659 C 129.05686,713.947 29.931863,1479.3213 1515.3317,1974.8077 M 1737.1488,1198.655 C 137.22713,618.85192 -25.406284,1371.3767 1412.9393,1990.3054 m 285.5695,-752.4941 C 153.52325,524.42083 -71.454709,1258.8102 1309.3258,1997.287 m 347.1673,-723.4916 C 177.89422,431.39476 -107.93361,1142.6003 1205.0275,1995.8463 m 406.3153,-689.5311 C 210.19367,340.56939 -134.64731,1023.7736 1100.6343,1986.0467 m 462.7269,-650.9783 C 250.16488,252.75892 -151.49744,903.37303 996.79757,1967.9413 M 1512.9146,1359.7642 C 297.43971,168.75706 -158.48396,782.42345 894.23108,1941.5945 m 566.19422,-561.45 C 351.55138,89.299927 -155.69379,661.89895 793.70364,1907.103 M 1406.3568,1396.0007 C 411.95983,15.035839 -143.27851,542.69615 696.02502,1864.6125 M 1351.1947,1407.1848 C 478.08604,-53.493917 -121.42404,425.61729 602.0268,1814.3284 m 693.3981,-400.7158 C 549.35072,-115.86082 -90.316566,311.36513 512.54065,1756.5195 M 1239.5118,1415.2588 C 625.21246,-171.74072 -50.108861,200.55035 428.37714,1691.5124 M 1183.8796,1412.1453 C 705.2006,-220.89256 -0.89126009,93.710374 350.30724,1619.6804 M 1128.8989,1404.3228 C 788.93979,-263.12643 57.329934,-8.6624978 279.04871,1541.4256 M 1074.8784,1391.8487 C 876.1637,-298.26397 124.6446,-106.08617 215.25835,1457.1561 m 806.80585,-82.3947 C 966.717,-326.0938 201.2405,-198.0494 159.53098,1367.2619 m 811.59601,-13.9752 C 1059.6,-346.16646 286.45217,-283.16938 112.76363,1273.0342 m 809.84896,54.7284 C 1153.6614,-358.23139 379.04743,-360.24046 75.260708,1175.8735 M 876.58134,1298.3366 C 1248.515,-362.2693 478.36074,-428.92085 46.730107,1076.2769 M 833.15635,1265.1371 C 1343.6633,-358.22797 583.62866,-488.83969 26.94172,974.72321 M 792.52239,1228.2993 C 1438.5003,-346.06677 693.99167,-539.63638 15.726338,871.69781 M 754.91805,1187.9874 C 1532.3243,-325.79631 808.50626,-580.99548 12.967936,767.71458 M 720.62189,1144.4125 C 1624.3633,-297.51027 926.1666,-612.67482 18.589991,663.33386 M 689.93381,1097.8447 C 1713.8075,-261.40668 1045.9336,-634.52432 32.537051,559.17432 M 663.15351,1048.618 C 1799.8473,-217.79627 1166.7684,-646.49324 54.75346,455.91757 M 640.55858,997.12679 C 1881.7123,-167.09669 1287.6668,-648.62519 85.161731,354.305 M 622.38515,943.81492 C 1958.7056,-109.81324 1407.6891,-641.04109 123.6434,255.12695 M 608.81354,889.15887 C 2030.2285,-46.508667 1525.9827,-623.91251 170.02488,159.20591 m 429.9362,674.44068 C 2095.7941,22.233919 1641.7931,-597.429 224.07034,67.375686 M 595.88272,777.7555 C 2155.0257,95.850052 1754.4633,-561.76366 285.48232,-19.540287 M 596.57952,721.93204 C 2207.6417,173.83001 1863.4202,-517.0413 353.91014,-100.74918 M 602.01385,666.57521 C 2253.429,255.74798 1968.1511,-463.31273 428.96486,-175.50506 m 183.1649,787.5306 C 2292.207,341.28147 2068.1718,-400.5376 510.23946,-243.11973 m 116.63753,801.6803 C 2323.7849,430.21944 2162.9893,-328.57728 597.33253,-302.96725 m 48.85203,809.48838 C 2347.8663,522.2272 2251.8515,-247.4158 689.64258,-354.37387 M 669.67716,456.76084 C 2363.982,615.7955 2333.0287,-158.38489 785.37372,-396.49678 M 697.14705,409.44181 C 2372.0774,710.36977 2405.9834,-62.285011 883.7908,-429.513 M 728.46014,364.65622 C 2372.1101,805.50743 2470.3534,40.168652 984.40959,-453.68321 M 763.48809,322.55946 C 2364.0273,900.65413 2525.7674,148.16237 1086.7515,-469.20563 M 802.08422,283.3656 C 2347.8088,995.15176 2571.8828,260.79086 1190.32,-476.2205 M 844.06304,247.33649 C 2323.5028,1088.2578 2608.4173,377.07438 1294.58,-474.82086 M 889.185,214.76525 c 1402.0683,964.40905 1745.9881,281.21914 509.758,-679.83414 M 937.14789,185.95581 C 2251.3151,1267.0843 2652.0502,616.47551 1502.7588,-447.01603 M 987.5861,161.2008 c 1216.4688,1189.9902 1671.4611,576.31918 617.7283,-581.92573 m -565.2366,561.48534 c 1109.861,1289.99409 1616.1728,717.38018 665.7635,-527.05067 m -611.682,511.13553 C 2089.5072,1505.123 2643.8121,977.4375 1803.5297,-343.85569 M 1149.3445,113.60532 C 2023.3399,1573.7516 2621.9184,1094.6054 1897.5473,-293.6248 M 1205.1465,107.12658 C 1952.018,1636.2088 2590.7572,1208.9388 1987.0618,-235.86438 M 1261.1,105.43571 c 614.9847,1586.73199 1289.383,1214.38899 810.1612,-276.33552 m -754.482,279.41193 C 1796.0131,1741.3852 2501.1881,1426.7237 2149.3736,-99.103199 M 1371.8123,116.30599 C 1712.1809,1783.6697 2442.881,1529.1422 2220.6796,-20.875505 M 1425.8894,128.76075 C 1624.8567,1818.8416 2375.4737,1626.597 2284.5213,63.375629 m -805.8295,82.462741 c 55.6322,1700.84373 820.2,1572.64233 861.5404,7.3225"
       class="UnoptimicedTransforms"
       transform="matrix(1.5000892,0,0,1.5000892,124.99112,692.03417)"
       inkscape:original-d="M 1478.7371,760.29987 A 228.29602,228.29602 0 0 1 1250.441,988.59589 228.29602,228.29602 0 0 1 1022.145,760.29987 228.29602,228.29602 0 0 1 1250.441,532.00385 228.29602,228.29602 0 0 1 1478.7371,760.29987 Z m 861.5398,-0.0635 A 1090.333,1090.333 0 0 1 1249.9438,1850.5694 1090.333,1090.333 0 0 1 159.61084,760.23639 1090.333,1090.333 0 0 1 1249.9438,-330.09662 1090.333,1090.333 0 0 1 2340.2769,760.23639 Z"
       inkscape:path-effect="#path-effect3666" />
    <path
       id="path3668"
       style="display:inline;opacity:0.98;fill:none;stroke:#e70043;stroke-width:4.07266;stroke-linejoin:bevel;stroke-dasharray:4.07266, 12.218;stroke-dashoffset:0;paint-order:markers stroke fill"
       d="m 1478.6918,145.83837 c 55.6322,1700.84373 820.2,1572.64233 861.5404,7.3225 m -810.5425,14.14667 c -88.3556,1699.45716 683.9004,1636.30236 857.3745,80.07614 m -808.8,-54.54749 c -231.0976,1685.98521 542.6412,1687.83831 846.3669,151.71368 m -800.2773,-122.273 C 1252.2102,1882.8336 2021.5052,1949.3332 2453.2237,444.16199 M 1667.8339,255.50061 C 1156.9646,1878.7495 1916.1551,2009.2155 2473.0707,545.7409 M 1708.5184,292.37169 C 1062.0386,1866.5295 1805.717,2059.9618 2484.3398,648.80076 M 1746.1671,332.72513 C 968.13637,1846.1858 1691.1367,2101.2578 2487.1456,752.82682 M 1780.5,376.34863 C 876.03261,1817.8139 1573.4222,2132.8633 2481.5632,857.2576 M 1811.2159,422.97057 C 786.53945,1781.6147 1453.6148,2154.6305 2467.6468,961.47297 M 1838.0141,472.25526 C 700.46812,1737.9019 1332.7547,2166.5113 2445.451,1064.7896 M 1860.6165,523.80636 C 618.59014,1687.0966 1211.8473,2168.5526 2415.0527,1166.464 M 1878.7866,577.17789 C 541.6029,1629.7079 1091.8325,2160.8783 2376.5701,1265.704 M 1892.3445,631.89142 C 470.1044,1566.3019 973.5624,2143.6632 2330.1772,1361.6851 M 1901.1734,687.45717 C 404.58047,1497.465 857.79046,2117.0996 2276.1105,1453.5716 M 1905.2195,743.39621 C 345.40614,1423.7643 745.17223,2081.363 2214.6682,1540.5387 M 1904.4828,799.26086 C 292.86077,1345.7118 636.27889,2036.5802 2146.2025,1621.7922 M 1899.0023,854.65121 C 247.15511,1263.7348 531.62111,1982.8033 2071.1034,1696.5854 M 1888.8353,909.22608 C 208.46747,1178.1571 431.68097,1919.9931 1989.7793,1764.2294 M 1874.0334,962.70749 C 176.98634,1089.1904 336.9495,1848.0116 1902.6329,1824.0979 m -47.964,-809.3433 C 153.00564,997.16938 248.17613,1766.8428 1810.2666,1875.5169 m 20.8524,-811.0034 C 136.99118,903.60385 167.0876,1677.8186 1714.4781,1917.6431 m 89.1149,-805.8214 C 128.99489,809.04893 94.219463,1581.7397 1616.0046,1950.6532 m 156.2217,-794.0659 C 129.05686,713.947 29.931863,1479.3213 1515.3317,1974.8077 M 1737.1488,1198.655 C 137.22713,618.85192 -25.406284,1371.3767 1412.9393,1990.3054 m 285.5695,-752.4941 C 153.52325,524.42083 -71.454709,1258.8102 1309.3258,1997.287 m 347.1673,-723.4916 C 177.89422,431.39476 -107.93361,1142.6003 1205.0275,1995.8463 m 406.3153,-689.5311 C 210.19367,340.56939 -134.64731,1023.7736 1100.6343,1986.0467 m 462.7269,-650.9783 C 250.16488,252.75892 -151.49744,903.37303 996.79757,1967.9413 M 1512.9146,1359.7642 C 297.43971,168.75706 -158.48396,782.42345 894.23108,1941.5945 m 566.19422,-561.45 C 351.55138,89.299927 -155.69379,661.89895 793.70364,1907.103 M 1406.3568,1396.0007 C 411.95983,15.035839 -143.27851,542.69615 696.02502,1864.6125 M 1351.1947,1407.1848 C 478.08604,-53.493917 -121.42404,425.61729 602.0268,1814.3284 m 693.3981,-400.7158 C 549.35072,-115.86082 -90.316566,311.36513 512.54065,1756.5195 M 1239.5118,1415.2588 C 625.21246,-171.74072 -50.108861,200.55035 428.37714,1691.5124 M 1183.8796,1412.1453 C 705.2006,-220.89256 -0.89126009,93.710374 350.30724,1619.6804 M 1128.8989,1404.3228 C 788.93979,-263.12643 57.329934,-8.6624978 279.04871,1541.4256 M 1074.8784,1391.8487 C 876.1637,-298.26397 124.6446,-106.08617 215.25835,1457.1561 m 806.80585,-82.3947 C 966.717,-326.0938 201.2405,-198.0494 159.53098,1367.2619 m 811.59601,-13.9752 C 1059.6,-346.16646 286.45217,-283.16938 112.76363,1273.0342 m 809.84896,54.7284 C 1153.6614,-358.23139 379.04743,-360.24046 75.260708,1175.8735 M 876.58134,1298.3366 C 1248.515,-362.2693 478.36074,-428.92085 46.730107,1076.2769 M 833.15635,1265.1371 C 1343.6633,-358.22797 583.62866,-488.83969 26.94172,974.72321 M 792.52239,1228.2993 C 1438.5003,-346.06677 693.99167,-539.63638 15.726338,871.69781 M 754.91805,1187.9874 C 1532.3243,-325.79631 808.50626,-580.99548 12.967936,767.71458 M 720.62189,1144.4125 C 1624.3633,-297.51027 926.1666,-612.67482 18.589991,663.33386 M 689.93381,1097.8447 C 1713.8075,-261.40668 1045.9336,-634.52432 32.537051,559.17432 M 663.15351,1048.618 C 1799.8473,-217.79627 1166.7684,-646.49324 54.75346,455.91757 M 640.55858,997.12679 C 1881.7123,-167.09669 1287.6668,-648.62519 85.161731,354.305 M 622.38515,943.81492 C 1958.7056,-109.81324 1407.6891,-641.04109 123.6434,255.12695 M 608.81354,889.15887 C 2030.2285,-46.508667 1525.9827,-623.91251 170.02488,159.20591 m 429.9362,674.44068 C 2095.7941,22.233919 1641.7931,-597.429 224.07034,67.375686 M 595.88272,777.7555 C 2155.0257,95.850052 1754.4633,-561.76366 285.48232,-19.540287 M 596.57952,721.93204 C 2207.6417,173.83001 1863.4202,-517.0413 353.91014,-100.74918 M 602.01385,666.57521 C 2253.429,255.74798 1968.1511,-463.31273 428.96486,-175.50506 m 183.1649,787.5306 C 2292.207,341.28147 2068.1718,-400.5376 510.23946,-243.11973 m 116.63753,801.6803 C 2323.7849,430.21944 2162.9893,-328.57728 597.33253,-302.96725 m 48.85203,809.48838 C 2347.8663,522.2272 2251.8515,-247.4158 689.64258,-354.37387 M 669.67716,456.76084 C 2363.982,615.7955 2333.0287,-158.38489 785.37372,-396.49678 M 697.14705,409.44181 C 2372.0774,710.36977 2405.9834,-62.285011 883.7908,-429.513 M 728.46014,364.65622 C 2372.1101,805.50743 2470.3534,40.168652 984.40959,-453.68321 M 763.48809,322.55946 C 2364.0273,900.65413 2525.7674,148.16237 1086.7515,-469.20563 M 802.08422,283.3656 C 2347.8088,995.15176 2571.8828,260.79086 1190.32,-476.2205 M 844.06304,247.33649 C 2323.5028,1088.2578 2608.4173,377.07438 1294.58,-474.82086 M 889.185,214.76525 c 1402.0683,964.40905 1745.9881,281.21914 509.758,-679.83414 M 937.14789,185.95581 C 2251.3151,1267.0843 2652.0502,616.47551 1502.7588,-447.01603 M 987.5861,161.2008 c 1216.4688,1189.9902 1671.4611,576.31918 617.7283,-581.92573 m -565.2366,561.48534 c 1109.861,1289.99409 1616.1728,717.38018 665.7635,-527.05067 m -611.682,511.13553 C 2089.5072,1505.123 2643.8121,977.4375 1803.5297,-343.85569 M 1149.3445,113.60532 C 2023.3399,1573.7516 2621.9184,1094.6054 1897.5473,-293.6248 M 1205.1465,107.12658 C 1952.018,1636.2088 2590.7572,1208.9388 1987.0618,-235.86438 M 1261.1,105.43571 c 614.9847,1586.73199 1289.383,1214.38899 810.1612,-276.33552 m -754.482,279.41193 C 1796.0131,1741.3852 2501.1881,1426.7237 2149.3736,-99.103199 M 1371.8123,116.30599 C 1712.1809,1783.6697 2442.881,1529.1422 2220.6796,-20.875505 M 1425.8894,128.76075 C 1624.8567,1818.8416 2375.4737,1626.597 2284.5213,63.375629 m -805.8295,82.462741 c 55.6322,1700.84373 820.2,1572.64233 861.5404,7.3225"
       class="UnoptimicedTransforms"
       transform="matrix(1.8394949,0,0,1.8394949,-299.3281,433.91957)"
       inkscape:original-d="M 1478.7371,760.29987 A 228.29602,228.29602 0 0 1 1250.441,988.59589 228.29602,228.29602 0 0 1 1022.145,760.29987 228.29602,228.29602 0 0 1 1250.441,532.00385 228.29602,228.29602 0 0 1 1478.7371,760.29987 Z m 861.5398,-0.0635 A 1090.333,1090.333 0 0 1 1249.9438,1850.5694 1090.333,1090.333 0 0 1 159.61084,760.23639 1090.333,1090.333 0 0 1 1249.9438,-330.09662 1090.333,1090.333 0 0 1 2340.2769,760.23639 Z"
       inkscape:path-effect="#path-effect3672" />
    <path
       id="path3674"
       style="display:inline;opacity:0.98;fill:none;stroke:#e70043;stroke-width:4.07266;stroke-linejoin:bevel;stroke-dasharray:4.07266, 12.218;stroke-dashoffset:0;paint-order:markers stroke fill"
       d="m 1478.6918,145.83837 c 55.6322,1700.84373 820.2,1572.64233 861.5404,7.3225 m -810.5425,14.14667 c -88.3556,1699.45716 683.9004,1636.30236 857.3745,80.07614 m -808.8,-54.54749 c -231.0976,1685.98521 542.6412,1687.83831 846.3669,151.71368 m -800.2773,-122.273 C 1252.2102,1882.8336 2021.5052,1949.3332 2453.2237,444.16199 M 1667.8339,255.50061 C 1156.9646,1878.7495 1916.1551,2009.2155 2473.0707,545.7409 M 1708.5184,292.37169 C 1062.0386,1866.5295 1805.717,2059.9618 2484.3398,648.80076 M 1746.1671,332.72513 C 968.13637,1846.1858 1691.1367,2101.2578 2487.1456,752.82682 M 1780.5,376.34863 C 876.03261,1817.8139 1573.4222,2132.8633 2481.5632,857.2576 M 1811.2159,422.97057 C 786.53945,1781.6147 1453.6148,2154.6305 2467.6468,961.47297 M 1838.0141,472.25526 C 700.46812,1737.9019 1332.7547,2166.5113 2445.451,1064.7896 M 1860.6165,523.80636 C 618.59014,1687.0966 1211.8473,2168.5526 2415.0527,1166.464 M 1878.7866,577.17789 C 541.6029,1629.7079 1091.8325,2160.8783 2376.5701,1265.704 M 1892.3445,631.89142 C 470.1044,1566.3019 973.5624,2143.6632 2330.1772,1361.6851 M 1901.1734,687.45717 C 404.58047,1497.465 857.79046,2117.0996 2276.1105,1453.5716 M 1905.2195,743.39621 C 345.40614,1423.7643 745.17223,2081.363 2214.6682,1540.5387 M 1904.4828,799.26086 C 292.86077,1345.7118 636.27889,2036.5802 2146.2025,1621.7922 M 1899.0023,854.65121 C 247.15511,1263.7348 531.62111,1982.8033 2071.1034,1696.5854 M 1888.8353,909.22608 C 208.46747,1178.1571 431.68097,1919.9931 1989.7793,1764.2294 M 1874.0334,962.70749 C 176.98634,1089.1904 336.9495,1848.0116 1902.6329,1824.0979 m -47.964,-809.3433 C 153.00564,997.16938 248.17613,1766.8428 1810.2666,1875.5169 m 20.8524,-811.0034 C 136.99118,903.60385 167.0876,1677.8186 1714.4781,1917.6431 m 89.1149,-805.8214 C 128.99489,809.04893 94.219463,1581.7397 1616.0046,1950.6532 m 156.2217,-794.0659 C 129.05686,713.947 29.931863,1479.3213 1515.3317,1974.8077 M 1737.1488,1198.655 C 137.22713,618.85192 -25.406284,1371.3767 1412.9393,1990.3054 m 285.5695,-752.4941 C 153.52325,524.42083 -71.454709,1258.8102 1309.3258,1997.287 m 347.1673,-723.4916 C 177.89422,431.39476 -107.93361,1142.6003 1205.0275,1995.8463 m 406.3153,-689.5311 C 210.19367,340.56939 -134.64731,1023.7736 1100.6343,1986.0467 m 462.7269,-650.9783 C 250.16488,252.75892 -151.49744,903.37303 996.79757,1967.9413 M 1512.9146,1359.7642 C 297.43971,168.75706 -158.48396,782.42345 894.23108,1941.5945 m 566.19422,-561.45 C 351.55138,89.299927 -155.69379,661.89895 793.70364,1907.103 M 1406.3568,1396.0007 C 411.95983,15.035839 -143.27851,542.69615 696.02502,1864.6125 M 1351.1947,1407.1848 C 478.08604,-53.493917 -121.42404,425.61729 602.0268,1814.3284 m 693.3981,-400.7158 C 549.35072,-115.86082 -90.316566,311.36513 512.54065,1756.5195 M 1239.5118,1415.2588 C 625.21246,-171.74072 -50.108861,200.55035 428.37714,1691.5124 M 1183.8796,1412.1453 C 705.2006,-220.89256 -0.89126009,93.710374 350.30724,1619.6804 M 1128.8989,1404.3228 C 788.93979,-263.12643 57.329934,-8.6624978 279.04871,1541.4256 M 1074.8784,1391.8487 C 876.1637,-298.26397 124.6446,-106.08617 215.25835,1457.1561 m 806.80585,-82.3947 C 966.717,-326.0938 201.2405,-198.0494 159.53098,1367.2619 m 811.59601,-13.9752 C 1059.6,-346.16646 286.45217,-283.16938 112.76363,1273.0342 m 809.84896,54.7284 C 1153.6614,-358.23139 379.04743,-360.24046 75.260708,1175.8735 M 876.58134,1298.3366 C 1248.515,-362.2693 478.36074,-428.92085 46.730107,1076.2769 M 833.15635,1265.1371 C 1343.6633,-358.22797 583.62866,-488.83969 26.94172,974.72321 M 792.52239,1228.2993 C 1438.5003,-346.06677 693.99167,-539.63638 15.726338,871.69781 M 754.91805,1187.9874 C 1532.3243,-325.79631 808.50626,-580.99548 12.967936,767.71458 M 720.62189,1144.4125 C 1624.3633,-297.51027 926.1666,-612.67482 18.589991,663.33386 M 689.93381,1097.8447 C 1713.8075,-261.40668 1045.9336,-634.52432 32.537051,559.17432 M 663.15351,1048.618 C 1799.8473,-217.79627 1166.7684,-646.49324 54.75346,455.91757 M 640.55858,997.12679 C 1881.7123,-167.09669 1287.6668,-648.62519 85.161731,354.305 M 622.38515,943.81492 C 1958.7056,-109.81324 1407.6891,-641.04109 123.6434,255.12695 M 608.81354,889.15887 C 2030.2285,-46.508667 1525.9827,-623.91251 170.02488,159.20591 m 429.9362,674.44068 C 2095.7941,22.233919 1641.7931,-597.429 224.07034,67.375686 M 595.88272,777.7555 C 2155.0257,95.850052 1754.4633,-561.76366 285.48232,-19.540287 M 596.57952,721.93204 C 2207.6417,173.83001 1863.4202,-517.0413 353.91014,-100.74918 M 602.01385,666.57521 C 2253.429,255.74798 1968.1511,-463.31273 428.96486,-175.50506 m 183.1649,787.5306 C 2292.207,341.28147 2068.1718,-400.5376 510.23946,-243.11973 m 116.63753,801.6803 C 2323.7849,430.21944 2162.9893,-328.57728 597.33253,-302.96725 m 48.85203,809.48838 C 2347.8663,522.2272 2251.8515,-247.4158 689.64258,-354.37387 M 669.67716,456.76084 C 2363.982,615.7955 2333.0287,-158.38489 785.37372,-396.49678 M 697.14705,409.44181 C 2372.0774,710.36977 2405.9834,-62.285011 883.7908,-429.513 M 728.46014,364.65622 C 2372.1101,805.50743 2470.3534,40.168652 984.40959,-453.68321 M 763.48809,322.55946 C 2364.0273,900.65413 2525.7674,148.16237 1086.7515,-469.20563 M 802.08422,283.3656 C 2347.8088,995.15176 2571.8828,260.79086 1190.32,-476.2205 M 844.06304,247.33649 C 2323.5028,1088.2578 2608.4173,377.07438 1294.58,-474.82086 M 889.185,214.76525 c 1402.0683,964.40905 1745.9881,281.21914 509.758,-679.83414 M 937.14789,185.95581 C 2251.3151,1267.0843 2652.0502,616.47551 1502.7588,-447.01603 M 987.5861,161.2008 c 1216.4688,1189.9902 1671.4611,576.31918 617.7283,-581.92573 m -565.2366,561.48534 c 1109.861,1289.99409 1616.1728,717.38018 665.7635,-527.05067 m -611.682,511.13553 C 2089.5072,1505.123 2643.8121,977.4375 1803.5297,-343.85569 M 1149.3445,113.60532 C 2023.3399,1573.7516 2621.9184,1094.6054 1897.5473,-293.6248 M 1205.1465,107.12658 C 1952.018,1636.2088 2590.7572,1208.9388 1987.0618,-235.86438 M 1261.1,105.43571 c 614.9847,1586.73199 1289.383,1214.38899 810.1612,-276.33552 m -754.482,279.41193 C 1796.0131,1741.3852 2501.1881,1426.7237 2149.3736,-99.103199 M 1371.8123,116.30599 C 1712.1809,1783.6697 2442.881,1529.1422 2220.6796,-20.875505 M 1425.8894,128.76075 C 1624.8567,1818.8416 2375.4737,1626.597 2284.5213,63.375629 m -805.8295,82.462741 c 55.6322,1700.84373 820.2,1572.64233 861.5404,7.3225"
       class="UnoptimicedTransforms"
       transform="matrix(1.8394949,0,0,1.8394949,-299.3281,433.91957)"
       inkscape:original-d="M 1478.7371,760.29987 A 228.29602,228.29602 0 0 1 1250.441,988.59589 228.29602,228.29602 0 0 1 1022.145,760.29987 228.29602,228.29602 0 0 1 1250.441,532.00385 228.29602,228.29602 0 0 1 1478.7371,760.29987 Z m 861.5398,-0.0635 A 1090.333,1090.333 0 0 1 1249.9438,1850.5694 1090.333,1090.333 0 0 1 159.61084,760.23639 1090.333,1090.333 0 0 1 1249.9438,-330.09662 1090.333,1090.333 0 0 1 2340.2769,760.23639 Z"
       inkscape:path-effect="#path-effect3678" />
    <path
       id="path411"
       style="display:inline;opacity:0.98;fill:none;stroke:#e70043;stroke-width:4.07266;stroke-linejoin:bevel;stroke-dasharray:4.07266, 12.218;stroke-dashoffset:0;paint-order:markers stroke fill"
       d="m 1478.6918,145.83837 c 55.6322,1700.84373 820.2,1572.64233 861.5404,7.3225 m -810.5425,14.14667 c -88.3556,1699.45716 683.9004,1636.30236 857.3745,80.07614 m -808.8,-54.54749 c -231.0976,1685.98521 542.6412,1687.83831 846.3669,151.71368 m -800.2773,-122.273 C 1252.2102,1882.8336 2021.5052,1949.3332 2453.2237,444.16199 M 1667.8339,255.50061 C 1156.9646,1878.7495 1916.1551,2009.2155 2473.0707,545.7409 M 1708.5184,292.37169 C 1062.0386,1866.5295 1805.717,2059.9618 2484.3398,648.80076 M 1746.1671,332.72513 C 968.13637,1846.1858 1691.1367,2101.2578 2487.1456,752.82682 M 1780.5,376.34863 C 876.03261,1817.8139 1573.4222,2132.8633 2481.5632,857.2576 M 1811.2159,422.97057 C 786.53945,1781.6147 1453.6148,2154.6305 2467.6468,961.47297 M 1838.0141,472.25526 C 700.46812,1737.9019 1332.7547,2166.5113 2445.451,1064.7896 M 1860.6165,523.80636 C 618.59014,1687.0966 1211.8473,2168.5526 2415.0527,1166.464 M 1878.7866,577.17789 C 541.6029,1629.7079 1091.8325,2160.8783 2376.5701,1265.704 M 1892.3445,631.89142 C 470.1044,1566.3019 973.5624,2143.6632 2330.1772,1361.6851 M 1901.1734,687.45717 C 404.58047,1497.465 857.79046,2117.0996 2276.1105,1453.5716 M 1905.2195,743.39621 C 345.40614,1423.7643 745.17223,2081.363 2214.6682,1540.5387 M 1904.4828,799.26086 C 292.86077,1345.7118 636.27889,2036.5802 2146.2025,1621.7922 M 1899.0023,854.65121 C 247.15511,1263.7348 531.62111,1982.8033 2071.1034,1696.5854 M 1888.8353,909.22608 C 208.46747,1178.1571 431.68097,1919.9931 1989.7793,1764.2294 M 1874.0334,962.70749 C 176.98634,1089.1904 336.9495,1848.0116 1902.6329,1824.0979 m -47.964,-809.3433 C 153.00564,997.16938 248.17613,1766.8428 1810.2666,1875.5169 m 20.8524,-811.0034 C 136.99118,903.60385 167.0876,1677.8186 1714.4781,1917.6431 m 89.1149,-805.8214 C 128.99489,809.04893 94.219463,1581.7397 1616.0046,1950.6532 m 156.2217,-794.0659 C 129.05686,713.947 29.931863,1479.3213 1515.3317,1974.8077 M 1737.1488,1198.655 C 137.22713,618.85192 -25.406284,1371.3767 1412.9393,1990.3054 m 285.5695,-752.4941 C 153.52325,524.42083 -71.454709,1258.8102 1309.3258,1997.287 m 347.1673,-723.4916 C 177.89422,431.39476 -107.93361,1142.6003 1205.0275,1995.8463 m 406.3153,-689.5311 C 210.19367,340.56939 -134.64731,1023.7736 1100.6343,1986.0467 m 462.7269,-650.9783 C 250.16488,252.75892 -151.49744,903.37303 996.79757,1967.9413 M 1512.9146,1359.7642 C 297.43971,168.75706 -158.48396,782.42345 894.23108,1941.5945 m 566.19422,-561.45 C 351.55138,89.299927 -155.69379,661.89895 793.70364,1907.103 M 1406.3568,1396.0007 C 411.95983,15.035839 -143.27851,542.69615 696.02502,1864.6125 M 1351.1947,1407.1848 C 478.08604,-53.493917 -121.42404,425.61729 602.0268,1814.3284 m 693.3981,-400.7158 C 549.35072,-115.86082 -90.316566,311.36513 512.54065,1756.5195 M 1239.5118,1415.2588 C 625.21246,-171.74072 -50.108861,200.55035 428.37714,1691.5124 M 1183.8796,1412.1453 C 705.2006,-220.89256 -0.89126009,93.710374 350.30724,1619.6804 M 1128.8989,1404.3228 C 788.93979,-263.12643 57.329934,-8.6624978 279.04871,1541.4256 M 1074.8784,1391.8487 C 876.1637,-298.26397 124.6446,-106.08617 215.25835,1457.1561 m 806.80585,-82.3947 C 966.717,-326.0938 201.2405,-198.0494 159.53098,1367.2619 m 811.59601,-13.9752 C 1059.6,-346.16646 286.45217,-283.16938 112.76363,1273.0342 m 809.84896,54.7284 C 1153.6614,-358.23139 379.04743,-360.24046 75.260708,1175.8735 M 876.58134,1298.3366 C 1248.515,-362.2693 478.36074,-428.92085 46.730107,1076.2769 M 833.15635,1265.1371 C 1343.6633,-358.22797 583.62866,-488.83969 26.94172,974.72321 M 792.52239,1228.2993 C 1438.5003,-346.06677 693.99167,-539.63638 15.726338,871.69781 M 754.91805,1187.9874 C 1532.3243,-325.79631 808.50626,-580.99548 12.967936,767.71458 M 720.62189,1144.4125 C 1624.3633,-297.51027 926.1666,-612.67482 18.589991,663.33386 M 689.93381,1097.8447 C 1713.8075,-261.40668 1045.9336,-634.52432 32.537051,559.17432 M 663.15351,1048.618 C 1799.8473,-217.79627 1166.7684,-646.49324 54.75346,455.91757 M 640.55858,997.12679 C 1881.7123,-167.09669 1287.6668,-648.62519 85.161731,354.305 M 622.38515,943.81492 C 1958.7056,-109.81324 1407.6891,-641.04109 123.6434,255.12695 M 608.81354,889.15887 C 2030.2285,-46.508667 1525.9827,-623.91251 170.02488,159.20591 m 429.9362,674.44068 C 2095.7941,22.233919 1641.7931,-597.429 224.07034,67.375686 M 595.88272,777.7555 C 2155.0257,95.850052 1754.4633,-561.76366 285.48232,-19.540287 M 596.57952,721.93204 C 2207.6417,173.83001 1863.4202,-517.0413 353.91014,-100.74918 M 602.01385,666.57521 C 2253.429,255.74798 1968.1511,-463.31273 428.96486,-175.50506 m 183.1649,787.5306 C 2292.207,341.28147 2068.1718,-400.5376 510.23946,-243.11973 m 116.63753,801.6803 C 2323.7849,430.21944 2162.9893,-328.57728 597.33253,-302.96725 m 48.85203,809.48838 C 2347.8663,522.2272 2251.8515,-247.4158 689.64258,-354.37387 M 669.67716,456.76084 C 2363.982,615.7955 2333.0287,-158.38489 785.37372,-396.49678 M 697.14705,409.44181 C 2372.0774,710.36977 2405.9834,-62.285011 883.7908,-429.513 M 728.46014,364.65622 C 2372.1101,805.50743 2470.3534,40.168652 984.40959,-453.68321 M 763.48809,322.55946 C 2364.0273,900.65413 2525.7674,148.16237 1086.7515,-469.20563 M 802.08422,283.3656 C 2347.8088,995.15176 2571.8828,260.79086 1190.32,-476.2205 M 844.06304,247.33649 C 2323.5028,1088.2578 2608.4173,377.07438 1294.58,-474.82086 M 889.185,214.76525 c 1402.0683,964.40905 1745.9881,281.21914 509.758,-679.83414 M 937.14789,185.95581 C 2251.3151,1267.0843 2652.0502,616.47551 1502.7588,-447.01603 M 987.5861,161.2008 c 1216.4688,1189.9902 1671.4611,576.31918 617.7283,-581.92573 m -565.2366,561.48534 c 1109.861,1289.99409 1616.1728,717.38018 665.7635,-527.05067 m -611.682,511.13553 C 2089.5072,1505.123 2643.8121,977.4375 1803.5297,-343.85569 M 1149.3445,113.60532 C 2023.3399,1573.7516 2621.9184,1094.6054 1897.5473,-293.6248 M 1205.1465,107.12658 C 1952.018,1636.2088 2590.7572,1208.9388 1987.0618,-235.86438 M 1261.1,105.43571 c 614.9847,1586.73199 1289.383,1214.38899 810.1612,-276.33552 m -754.482,279.41193 C 1796.0131,1741.3852 2501.1881,1426.7237 2149.3736,-99.103199 M 1371.8123,116.30599 C 1712.1809,1783.6697 2442.881,1529.1422 2220.6796,-20.875505 M 1425.8894,128.76075 C 1624.8567,1818.8416 2375.4737,1626.597 2284.5213,63.375629 m -805.8295,82.462741 c 55.6322,1700.84373 820.2,1572.64233 861.5404,7.3225"
       class="UnoptimicedTransforms"
       transform="matrix(2.765058,0,0,2.765058,-1456.4512,-269.96173)"
       inkscape:original-d="M 1478.7371,760.29987 A 228.29602,228.29602 0 0 1 1250.441,988.59589 228.29602,228.29602 0 0 1 1022.145,760.29987 228.29602,228.29602 0 0 1 1250.441,532.00385 228.29602,228.29602 0 0 1 1478.7371,760.29987 Z m 861.5398,-0.0635 A 1090.333,1090.333 0 0 1 1249.9438,1850.5694 1090.333,1090.333 0 0 1 159.61084,760.23639 1090.333,1090.333 0 0 1 1249.9438,-330.09662 1090.333,1090.333 0 0 1 2340.2769,760.23639 Z"
       inkscape:path-effect="#path-effect415" />
    <path
       id="path417"
       style="display:inline;opacity:0.98;fill:none;fill-opacity:1;stroke:#e70043;stroke-width:2.73423;stroke-linejoin:bevel;stroke-dasharray:2.73423, 8.20269;stroke-dashoffset:0;paint-order:markers stroke fill"
       d="m 1478.6918,145.83837 c 55.6322,1700.84373 820.2,1572.64233 861.5404,7.3225 m -810.5425,14.14667 c -88.3556,1699.45716 683.9004,1636.30236 857.3745,80.07614 m -808.8,-54.54749 c -231.0976,1685.98521 542.6412,1687.83831 846.3669,151.71368 m -800.2773,-122.273 C 1252.2102,1882.8336 2021.5052,1949.3332 2453.2237,444.16199 M 1667.8339,255.50061 C 1156.9646,1878.7495 1916.1551,2009.2155 2473.0707,545.7409 M 1708.5184,292.37169 C 1062.0386,1866.5295 1805.717,2059.9618 2484.3398,648.80076 M 1746.1671,332.72513 C 968.13637,1846.1858 1691.1367,2101.2578 2487.1456,752.82682 M 1780.5,376.34863 C 876.03261,1817.8139 1573.4222,2132.8633 2481.5632,857.2576 M 1811.2159,422.97057 C 786.53945,1781.6147 1453.6148,2154.6305 2467.6468,961.47297 M 1838.0141,472.25526 C 700.46812,1737.9019 1332.7547,2166.5113 2445.451,1064.7896 M 1860.6165,523.80636 C 618.59014,1687.0966 1211.8473,2168.5526 2415.0527,1166.464 M 1878.7866,577.17789 C 541.6029,1629.7079 1091.8325,2160.8783 2376.5701,1265.704 M 1892.3445,631.89142 C 470.1044,1566.3019 973.5624,2143.6632 2330.1772,1361.6851 M 1901.1734,687.45717 C 404.58047,1497.465 857.79046,2117.0996 2276.1105,1453.5716 M 1905.2195,743.39621 C 345.40614,1423.7643 745.17223,2081.363 2214.6682,1540.5387 M 1904.4828,799.26086 C 292.86077,1345.7118 636.27889,2036.5802 2146.2025,1621.7922 M 1899.0023,854.65121 C 247.15511,1263.7348 531.62111,1982.8033 2071.1034,1696.5854 M 1888.8353,909.22608 C 208.46747,1178.1571 431.68097,1919.9931 1989.7793,1764.2294 M 1874.0334,962.70749 C 176.98634,1089.1904 336.9495,1848.0116 1902.6329,1824.0979 m -47.964,-809.3433 C 153.00564,997.16938 248.17613,1766.8428 1810.2666,1875.5169 m 20.8524,-811.0034 C 136.99118,903.60385 167.0876,1677.8186 1714.4781,1917.6431 m 89.1149,-805.8214 C 128.99489,809.04893 94.219463,1581.7397 1616.0046,1950.6532 m 156.2217,-794.0659 C 129.05686,713.947 29.931863,1479.3213 1515.3317,1974.8077 M 1737.1488,1198.655 C 137.22713,618.85192 -25.406284,1371.3767 1412.9393,1990.3054 m 285.5695,-752.4941 C 153.52325,524.42083 -71.454709,1258.8102 1309.3258,1997.287 m 347.1673,-723.4916 C 177.89422,431.39476 -107.93361,1142.6003 1205.0275,1995.8463 m 406.3153,-689.5311 C 210.19367,340.56939 -134.64731,1023.7736 1100.6343,1986.0467 m 462.7269,-650.9783 C 250.16488,252.75892 -151.49744,903.37303 996.79757,1967.9413 M 1512.9146,1359.7642 C 297.43971,168.75706 -158.48396,782.42345 894.23108,1941.5945 m 566.19422,-561.45 C 351.55138,89.299927 -155.69379,661.89895 793.70364,1907.103 M 1406.3568,1396.0007 C 411.95983,15.035839 -143.27851,542.69615 696.02502,1864.6125 M 1351.1947,1407.1848 C 478.08604,-53.493917 -121.42404,425.61729 602.0268,1814.3284 m 693.3981,-400.7158 C 549.35072,-115.86082 -90.316566,311.36513 512.54065,1756.5195 M 1239.5118,1415.2588 C 625.21246,-171.74072 -50.108861,200.55035 428.37714,1691.5124 M 1183.8796,1412.1453 C 705.2006,-220.89256 -0.89126009,93.710374 350.30724,1619.6804 M 1128.8989,1404.3228 C 788.93979,-263.12643 57.329934,-8.6624978 279.04871,1541.4256 M 1074.8784,1391.8487 C 876.1637,-298.26397 124.6446,-106.08617 215.25835,1457.1561 m 806.80585,-82.3947 C 966.717,-326.0938 201.2405,-198.0494 159.53098,1367.2619 m 811.59601,-13.9752 C 1059.6,-346.16646 286.45217,-283.16938 112.76363,1273.0342 m 809.84896,54.7284 C 1153.6614,-358.23139 379.04743,-360.24046 75.260708,1175.8735 M 876.58134,1298.3366 C 1248.515,-362.2693 478.36074,-428.92085 46.730107,1076.2769 M 833.15635,1265.1371 C 1343.6633,-358.22797 583.62866,-488.83969 26.94172,974.72321 M 792.52239,1228.2993 C 1438.5003,-346.06677 693.99167,-539.63638 15.726338,871.69781 M 754.91805,1187.9874 C 1532.3243,-325.79631 808.50626,-580.99548 12.967936,767.71458 M 720.62189,1144.4125 C 1624.3633,-297.51027 926.1666,-612.67482 18.589991,663.33386 M 689.93381,1097.8447 C 1713.8075,-261.40668 1045.9336,-634.52432 32.537051,559.17432 M 663.15351,1048.618 C 1799.8473,-217.79627 1166.7684,-646.49324 54.75346,455.91757 M 640.55858,997.12679 C 1881.7123,-167.09669 1287.6668,-648.62519 85.161731,354.305 M 622.38515,943.81492 C 1958.7056,-109.81324 1407.6891,-641.04109 123.6434,255.12695 M 608.81354,889.15887 C 2030.2285,-46.508667 1525.9827,-623.91251 170.02488,159.20591 m 429.9362,674.44068 C 2095.7941,22.233919 1641.7931,-597.429 224.07034,67.375686 M 595.88272,777.7555 C 2155.0257,95.850052 1754.4633,-561.76366 285.48232,-19.540287 M 596.57952,721.93204 C 2207.6417,173.83001 1863.4202,-517.0413 353.91014,-100.74918 M 602.01385,666.57521 C 2253.429,255.74798 1968.1511,-463.31273 428.96486,-175.50506 m 183.1649,787.5306 C 2292.207,341.28147 2068.1718,-400.5376 510.23946,-243.11973 m 116.63753,801.6803 C 2323.7849,430.21944 2162.9893,-328.57728 597.33253,-302.96725 m 48.85203,809.48838 C 2347.8663,522.2272 2251.8515,-247.4158 689.64258,-354.37387 M 669.67716,456.76084 C 2363.982,615.7955 2333.0287,-158.38489 785.37372,-396.49678 M 697.14705,409.44181 C 2372.0774,710.36977 2405.9834,-62.285011 883.7908,-429.513 M 728.46014,364.65622 C 2372.1101,805.50743 2470.3534,40.168652 984.40959,-453.68321 M 763.48809,322.55946 C 2364.0273,900.65413 2525.7674,148.16237 1086.7515,-469.20563 M 802.08422,283.3656 C 2347.8088,995.15176 2571.8828,260.79086 1190.32,-476.2205 M 844.06304,247.33649 C 2323.5028,1088.2578 2608.4173,377.07438 1294.58,-474.82086 M 889.185,214.76525 c 1402.0683,964.40905 1745.9881,281.21914 509.758,-679.83414 M 937.14789,185.95581 C 2251.3151,1267.0843 2652.0502,616.47551 1502.7588,-447.01603 M 987.5861,161.2008 c 1216.4688,1189.9902 1671.4611,576.31918 617.7283,-581.92573 m -565.2366,561.48534 c 1109.861,1289.99409 1616.1728,717.38018 665.7635,-527.05067 m -611.682,511.13553 C 2089.5072,1505.123 2643.8121,977.4375 1803.5297,-343.85569 M 1149.3445,113.60532 C 2023.3399,1573.7516 2621.9184,1094.6054 1897.5473,-293.6248 M 1205.1465,107.12658 C 1952.018,1636.2088 2590.7572,1208.9388 1987.0618,-235.86438 M 1261.1,105.43571 c 614.9847,1586.73199 1289.383,1214.38899 810.1612,-276.33552 m -754.482,279.41193 C 1796.0131,1741.3852 2501.1881,1426.7237 2149.3736,-99.103199 M 1371.8123,116.30599 C 1712.1809,1783.6697 2442.881,1529.1422 2220.6796,-20.875505 M 1425.8894,128.76075 C 1624.8567,1818.8416 2375.4737,1626.597 2284.5213,63.375629 m -805.8295,82.462741 c 55.6322,1700.84373 820.2,1572.64233 861.5404,7.3225"
       class="UnoptimicedTransforms"
       transform="matrix(3.1383647,0,0,3.1383647,-1923.1057,-553.87393)"
       inkscape:original-d="M 1478.7371,760.29987 A 228.29602,228.29602 0 0 1 1250.441,988.59589 228.29602,228.29602 0 0 1 1022.145,760.29987 228.29602,228.29602 0 0 1 1250.441,532.00385 228.29602,228.29602 0 0 1 1478.7371,760.29987 Z m 861.5398,-0.0635 A 1090.333,1090.333 0 0 1 1249.9438,1850.5694 1090.333,1090.333 0 0 1 159.61084,760.23639 1090.333,1090.333 0 0 1 1249.9438,-330.09662 1090.333,1090.333 0 0 1 2340.2769,760.23639 Z"
       inkscape:path-effect="#path-effect421" />
    <path
       id="path1853"
       style="display:inline;opacity:0.98;fill:none;fill-opacity:1;stroke:#e70043;stroke-width:2.73423;stroke-linejoin:bevel;stroke-dasharray:2.73423, 8.20269;stroke-dashoffset:0;paint-order:markers stroke fill"
       d="m 1478.6918,145.83837 c 55.6322,1700.84373 820.2,1572.64233 861.5404,7.3225 m -810.5425,14.14667 c -88.3556,1699.45716 683.9004,1636.30236 857.3745,80.07614 m -808.8,-54.54749 c -231.0976,1685.98521 542.6412,1687.83831 846.3669,151.71368 m -800.2773,-122.273 C 1252.2102,1882.8336 2021.5052,1949.3332 2453.2237,444.16199 M 1667.8339,255.50061 C 1156.9646,1878.7495 1916.1551,2009.2155 2473.0707,545.7409 M 1708.5184,292.37169 C 1062.0386,1866.5295 1805.717,2059.9618 2484.3398,648.80076 M 1746.1671,332.72513 C 968.13637,1846.1858 1691.1367,2101.2578 2487.1456,752.82682 M 1780.5,376.34863 C 876.03261,1817.8139 1573.4222,2132.8633 2481.5632,857.2576 M 1811.2159,422.97057 C 786.53945,1781.6147 1453.6148,2154.6305 2467.6468,961.47297 M 1838.0141,472.25526 C 700.46812,1737.9019 1332.7547,2166.5113 2445.451,1064.7896 M 1860.6165,523.80636 C 618.59014,1687.0966 1211.8473,2168.5526 2415.0527,1166.464 M 1878.7866,577.17789 C 541.6029,1629.7079 1091.8325,2160.8783 2376.5701,1265.704 M 1892.3445,631.89142 C 470.1044,1566.3019 973.5624,2143.6632 2330.1772,1361.6851 M 1901.1734,687.45717 C 404.58047,1497.465 857.79046,2117.0996 2276.1105,1453.5716 M 1905.2195,743.39621 C 345.40614,1423.7643 745.17223,2081.363 2214.6682,1540.5387 M 1904.4828,799.26086 C 292.86077,1345.7118 636.27889,2036.5802 2146.2025,1621.7922 M 1899.0023,854.65121 C 247.15511,1263.7348 531.62111,1982.8033 2071.1034,1696.5854 M 1888.8353,909.22608 C 208.46747,1178.1571 431.68097,1919.9931 1989.7793,1764.2294 M 1874.0334,962.70749 C 176.98634,1089.1904 336.9495,1848.0116 1902.6329,1824.0979 m -47.964,-809.3433 C 153.00564,997.16938 248.17613,1766.8428 1810.2666,1875.5169 m 20.8524,-811.0034 C 136.99118,903.60385 167.0876,1677.8186 1714.4781,1917.6431 m 89.1149,-805.8214 C 128.99489,809.04893 94.219463,1581.7397 1616.0046,1950.6532 m 156.2217,-794.0659 C 129.05686,713.947 29.931863,1479.3213 1515.3317,1974.8077 M 1737.1488,1198.655 C 137.22713,618.85192 -25.406284,1371.3767 1412.9393,1990.3054 m 285.5695,-752.4941 C 153.52325,524.42083 -71.454709,1258.8102 1309.3258,1997.287 m 347.1673,-723.4916 C 177.89422,431.39476 -107.93361,1142.6003 1205.0275,1995.8463 m 406.3153,-689.5311 C 210.19367,340.56939 -134.64731,1023.7736 1100.6343,1986.0467 m 462.7269,-650.9783 C 250.16488,252.75892 -151.49744,903.37303 996.79757,1967.9413 M 1512.9146,1359.7642 C 297.43971,168.75706 -158.48396,782.42345 894.23108,1941.5945 m 566.19422,-561.45 C 351.55138,89.299927 -155.69379,661.89895 793.70364,1907.103 M 1406.3568,1396.0007 C 411.95983,15.035839 -143.27851,542.69615 696.02502,1864.6125 M 1351.1947,1407.1848 C 478.08604,-53.493917 -121.42404,425.61729 602.0268,1814.3284 m 693.3981,-400.7158 C 549.35072,-115.86082 -90.316566,311.36513 512.54065,1756.5195 M 1239.5118,1415.2588 C 625.21246,-171.74072 -50.108861,200.55035 428.37714,1691.5124 M 1183.8796,1412.1453 C 705.2006,-220.89256 -0.89126009,93.710374 350.30724,1619.6804 M 1128.8989,1404.3228 C 788.93979,-263.12643 57.329934,-8.6624978 279.04871,1541.4256 M 1074.8784,1391.8487 C 876.1637,-298.26397 124.6446,-106.08617 215.25835,1457.1561 m 806.80585,-82.3947 C 966.717,-326.0938 201.2405,-198.0494 159.53098,1367.2619 m 811.59601,-13.9752 C 1059.6,-346.16646 286.45217,-283.16938 112.76363,1273.0342 m 809.84896,54.7284 C 1153.6614,-358.23139 379.04743,-360.24046 75.260708,1175.8735 M 876.58134,1298.3366 C 1248.515,-362.2693 478.36074,-428.92085 46.730107,1076.2769 M 833.15635,1265.1371 C 1343.6633,-358.22797 583.62866,-488.83969 26.94172,974.72321 M 792.52239,1228.2993 C 1438.5003,-346.06677 693.99167,-539.63638 15.726338,871.69781 M 754.91805,1187.9874 C 1532.3243,-325.79631 808.50626,-580.99548 12.967936,767.71458 M 720.62189,1144.4125 C 1624.3633,-297.51027 926.1666,-612.67482 18.589991,663.33386 M 689.93381,1097.8447 C 1713.8075,-261.40668 1045.9336,-634.52432 32.537051,559.17432 M 663.15351,1048.618 C 1799.8473,-217.79627 1166.7684,-646.49324 54.75346,455.91757 M 640.55858,997.12679 C 1881.7123,-167.09669 1287.6668,-648.62519 85.161731,354.305 M 622.38515,943.81492 C 1958.7056,-109.81324 1407.6891,-641.04109 123.6434,255.12695 M 608.81354,889.15887 C 2030.2285,-46.508667 1525.9827,-623.91251 170.02488,159.20591 m 429.9362,674.44068 C 2095.7941,22.233919 1641.7931,-597.429 224.07034,67.375686 M 595.88272,777.7555 C 2155.0257,95.850052 1754.4633,-561.76366 285.48232,-19.540287 M 596.57952,721.93204 C 2207.6417,173.83001 1863.4202,-517.0413 353.91014,-100.74918 M 602.01385,666.57521 C 2253.429,255.74798 1968.1511,-463.31273 428.96486,-175.50506 m 183.1649,787.5306 C 2292.207,341.28147 2068.1718,-400.5376 510.23946,-243.11973 m 116.63753,801.6803 C 2323.7849,430.21944 2162.9893,-328.57728 597.33253,-302.96725 m 48.85203,809.48838 C 2347.8663,522.2272 2251.8515,-247.4158 689.64258,-354.37387 M 669.67716,456.76084 C 2363.982,615.7955 2333.0287,-158.38489 785.37372,-396.49678 M 697.14705,409.44181 C 2372.0774,710.36977 2405.9834,-62.285011 883.7908,-429.513 M 728.46014,364.65622 C 2372.1101,805.50743 2470.3534,40.168652 984.40959,-453.68321 M 763.48809,322.55946 C 2364.0273,900.65413 2525.7674,148.16237 1086.7515,-469.20563 M 802.08422,283.3656 C 2347.8088,995.15176 2571.8828,260.79086 1190.32,-476.2205 M 844.06304,247.33649 C 2323.5028,1088.2578 2608.4173,377.07438 1294.58,-474.82086 M 889.185,214.76525 c 1402.0683,964.40905 1745.9881,281.21914 509.758,-679.83414 M 937.14789,185.95581 C 2251.3151,1267.0843 2652.0502,616.47551 1502.7588,-447.01603 M 987.5861,161.2008 c 1216.4688,1189.9902 1671.4611,576.31918 617.7283,-581.92573 m -565.2366,561.48534 c 1109.861,1289.99409 1616.1728,717.38018 665.7635,-527.05067 m -611.682,511.13553 C 2089.5072,1505.123 2643.8121,977.4375 1803.5297,-343.85569 M 1149.3445,113.60532 C 2023.3399,1573.7516 2621.9184,1094.6054 1897.5473,-293.6248 M 1205.1465,107.12658 C 1952.018,1636.2088 2590.7572,1208.9388 1987.0618,-235.86438 M 1261.1,105.43571 c 614.9847,1586.73199 1289.383,1214.38899 810.1612,-276.33552 m -754.482,279.41193 C 1796.0131,1741.3852 2501.1881,1426.7237 2149.3736,-99.103199 M 1371.8123,116.30599 C 1712.1809,1783.6697 2442.881,1529.1422 2220.6796,-20.875505 M 1425.8894,128.76075 C 1624.8567,1818.8416 2375.4737,1626.597 2284.5213,63.375629 m -805.8295,82.462741 c 55.6322,1700.84373 820.2,1572.64233 861.5404,7.3225"
       class="UnoptimicedTransforms"
       transform="matrix(3.5212627,0,0,3.5212627,-2401.7499,-845.08063)"
       inkscape:original-d="M 1478.7371,760.29987 A 228.29602,228.29602 0 0 1 1250.441,988.59589 228.29602,228.29602 0 0 1 1022.145,760.29987 228.29602,228.29602 0 0 1 1250.441,532.00385 228.29602,228.29602 0 0 1 1478.7371,760.29987 Z m 861.5398,-0.0635 A 1090.333,1090.333 0 0 1 1249.9438,1850.5694 1090.333,1090.333 0 0 1 159.61084,760.23639 1090.333,1090.333 0 0 1 1249.9438,-330.09662 1090.333,1090.333 0 0 1 2340.2769,760.23639 Z"
       inkscape:path-effect="#path-effect1857" />
    <path
       id="path1893"
       style="display:inline;opacity:0.98;fill:none;fill-opacity:1;stroke:#e70043;stroke-width:2.73423;stroke-linejoin:bevel;stroke-dasharray:2.73423, 8.20269;stroke-dashoffset:0;paint-order:markers stroke fill"
       d="m 1478.6918,145.83837 c 55.6322,1700.84373 820.2,1572.64233 861.5404,7.3225 m -810.5425,14.14667 c -88.3556,1699.45716 683.9004,1636.30236 857.3745,80.07614 m -808.8,-54.54749 c -231.0976,1685.98521 542.6412,1687.83831 846.3669,151.71368 m -800.2773,-122.273 C 1252.2102,1882.8336 2021.5052,1949.3332 2453.2237,444.16199 M 1667.8339,255.50061 C 1156.9646,1878.7495 1916.1551,2009.2155 2473.0707,545.7409 M 1708.5184,292.37169 C 1062.0386,1866.5295 1805.717,2059.9618 2484.3398,648.80076 M 1746.1671,332.72513 C 968.13637,1846.1858 1691.1367,2101.2578 2487.1456,752.82682 M 1780.5,376.34863 C 876.03261,1817.8139 1573.4222,2132.8633 2481.5632,857.2576 M 1811.2159,422.97057 C 786.53945,1781.6147 1453.6148,2154.6305 2467.6468,961.47297 M 1838.0141,472.25526 C 700.46812,1737.9019 1332.7547,2166.5113 2445.451,1064.7896 M 1860.6165,523.80636 C 618.59014,1687.0966 1211.8473,2168.5526 2415.0527,1166.464 M 1878.7866,577.17789 C 541.6029,1629.7079 1091.8325,2160.8783 2376.5701,1265.704 M 1892.3445,631.89142 C 470.1044,1566.3019 973.5624,2143.6632 2330.1772,1361.6851 M 1901.1734,687.45717 C 404.58047,1497.465 857.79046,2117.0996 2276.1105,1453.5716 M 1905.2195,743.39621 C 345.40614,1423.7643 745.17223,2081.363 2214.6682,1540.5387 M 1904.4828,799.26086 C 292.86077,1345.7118 636.27889,2036.5802 2146.2025,1621.7922 M 1899.0023,854.65121 C 247.15511,1263.7348 531.62111,1982.8033 2071.1034,1696.5854 M 1888.8353,909.22608 C 208.46747,1178.1571 431.68097,1919.9931 1989.7793,1764.2294 M 1874.0334,962.70749 C 176.98634,1089.1904 336.9495,1848.0116 1902.6329,1824.0979 m -47.964,-809.3433 C 153.00564,997.16938 248.17613,1766.8428 1810.2666,1875.5169 m 20.8524,-811.0034 C 136.99118,903.60385 167.0876,1677.8186 1714.4781,1917.6431 m 89.1149,-805.8214 C 128.99489,809.04893 94.219463,1581.7397 1616.0046,1950.6532 m 156.2217,-794.0659 C 129.05686,713.947 29.931863,1479.3213 1515.3317,1974.8077 M 1737.1488,1198.655 C 137.22713,618.85192 -25.406284,1371.3767 1412.9393,1990.3054 m 285.5695,-752.4941 C 153.52325,524.42083 -71.454709,1258.8102 1309.3258,1997.287 m 347.1673,-723.4916 C 177.89422,431.39476 -107.93361,1142.6003 1205.0275,1995.8463 m 406.3153,-689.5311 C 210.19367,340.56939 -134.64731,1023.7736 1100.6343,1986.0467 m 462.7269,-650.9783 C 250.16488,252.75892 -151.49744,903.37303 996.79757,1967.9413 M 1512.9146,1359.7642 C 297.43971,168.75706 -158.48396,782.42345 894.23108,1941.5945 m 566.19422,-561.45 C 351.55138,89.299927 -155.69379,661.89895 793.70364,1907.103 M 1406.3568,1396.0007 C 411.95983,15.035839 -143.27851,542.69615 696.02502,1864.6125 M 1351.1947,1407.1848 C 478.08604,-53.493917 -121.42404,425.61729 602.0268,1814.3284 m 693.3981,-400.7158 C 549.35072,-115.86082 -90.316566,311.36513 512.54065,1756.5195 M 1239.5118,1415.2588 C 625.21246,-171.74072 -50.108861,200.55035 428.37714,1691.5124 M 1183.8796,1412.1453 C 705.2006,-220.89256 -0.89126009,93.710374 350.30724,1619.6804 M 1128.8989,1404.3228 C 788.93979,-263.12643 57.329934,-8.6624978 279.04871,1541.4256 M 1074.8784,1391.8487 C 876.1637,-298.26397 124.6446,-106.08617 215.25835,1457.1561 m 806.80585,-82.3947 C 966.717,-326.0938 201.2405,-198.0494 159.53098,1367.2619 m 811.59601,-13.9752 C 1059.6,-346.16646 286.45217,-283.16938 112.76363,1273.0342 m 809.84896,54.7284 C 1153.6614,-358.23139 379.04743,-360.24046 75.260708,1175.8735 M 876.58134,1298.3366 C 1248.515,-362.2693 478.36074,-428.92085 46.730107,1076.2769 M 833.15635,1265.1371 C 1343.6633,-358.22797 583.62866,-488.83969 26.94172,974.72321 M 792.52239,1228.2993 C 1438.5003,-346.06677 693.99167,-539.63638 15.726338,871.69781 M 754.91805,1187.9874 C 1532.3243,-325.79631 808.50626,-580.99548 12.967936,767.71458 M 720.62189,1144.4125 C 1624.3633,-297.51027 926.1666,-612.67482 18.589991,663.33386 M 689.93381,1097.8447 C 1713.8075,-261.40668 1045.9336,-634.52432 32.537051,559.17432 M 663.15351,1048.618 C 1799.8473,-217.79627 1166.7684,-646.49324 54.75346,455.91757 M 640.55858,997.12679 C 1881.7123,-167.09669 1287.6668,-648.62519 85.161731,354.305 M 622.38515,943.81492 C 1958.7056,-109.81324 1407.6891,-641.04109 123.6434,255.12695 M 608.81354,889.15887 C 2030.2285,-46.508667 1525.9827,-623.91251 170.02488,159.20591 m 429.9362,674.44068 C 2095.7941,22.233919 1641.7931,-597.429 224.07034,67.375686 M 595.88272,777.7555 C 2155.0257,95.850052 1754.4633,-561.76366 285.48232,-19.540287 M 596.57952,721.93204 C 2207.6417,173.83001 1863.4202,-517.0413 353.91014,-100.74918 M 602.01385,666.57521 C 2253.429,255.74798 1968.1511,-463.31273 428.96486,-175.50506 m 183.1649,787.5306 C 2292.207,341.28147 2068.1718,-400.5376 510.23946,-243.11973 m 116.63753,801.6803 C 2323.7849,430.21944 2162.9893,-328.57728 597.33253,-302.96725 m 48.85203,809.48838 C 2347.8663,522.2272 2251.8515,-247.4158 689.64258,-354.37387 M 669.67716,456.76084 C 2363.982,615.7955 2333.0287,-158.38489 785.37372,-396.49678 M 697.14705,409.44181 C 2372.0774,710.36977 2405.9834,-62.285011 883.7908,-429.513 M 728.46014,364.65622 C 2372.1101,805.50743 2470.3534,40.168652 984.40959,-453.68321 M 763.48809,322.55946 C 2364.0273,900.65413 2525.7674,148.16237 1086.7515,-469.20563 M 802.08422,283.3656 C 2347.8088,995.15176 2571.8828,260.79086 1190.32,-476.2205 M 844.06304,247.33649 C 2323.5028,1088.2578 2608.4173,377.07438 1294.58,-474.82086 M 889.185,214.76525 c 1402.0683,964.40905 1745.9881,281.21914 509.758,-679.83414 M 937.14789,185.95581 C 2251.3151,1267.0843 2652.0502,616.47551 1502.7588,-447.01603 M 987.5861,161.2008 c 1216.4688,1189.9902 1671.4611,576.31918 617.7283,-581.92573 m -565.2366,561.48534 c 1109.861,1289.99409 1616.1728,717.38018 665.7635,-527.05067 m -611.682,511.13553 C 2089.5072,1505.123 2643.8121,977.4375 1803.5297,-343.85569 M 1149.3445,113.60532 C 2023.3399,1573.7516 2621.9184,1094.6054 1897.5473,-293.6248 M 1205.1465,107.12658 C 1952.018,1636.2088 2590.7572,1208.9388 1987.0618,-235.86438 M 1261.1,105.43571 c 614.9847,1586.73199 1289.383,1214.38899 810.1612,-276.33552 m -754.482,279.41193 C 1796.0131,1741.3852 2501.1881,1426.7237 2149.3736,-99.103199 M 1371.8123,116.30599 C 1712.1809,1783.6697 2442.881,1529.1422 2220.6796,-20.875505 M 1425.8894,128.76075 C 1624.8567,1818.8416 2375.4737,1626.597 2284.5213,63.375629 m -805.8295,82.462741 c 55.6322,1700.84373 820.2,1572.64233 861.5404,7.3225"
       class="UnoptimicedTransforms"
       transform="matrix(3.7460702,0,0,3.7460702,-2682.8004,-1016.0446)"
       inkscape:original-d="M 1478.7371,760.29987 A 228.29602,228.29602 0 0 1 1250.441,988.59589 228.29602,228.29602 0 0 1 1022.145,760.29987 228.29602,228.29602 0 0 1 1250.441,532.00385 228.29602,228.29602 0 0 1 1478.7371,760.29987 Z m 861.5398,-0.0635 A 1090.333,1090.333 0 0 1 1249.9438,1850.5694 1090.333,1090.333 0 0 1 159.61084,760.23639 1090.333,1090.333 0 0 1 1249.9438,-330.09662 1090.333,1090.333 0 0 1 2340.2769,760.23639 Z"
       inkscape:path-effect="#path-effect1897" />
  </g>
</svg>
